<svg width="93" height="67" viewBox="0 0 93 67" fill="none" xmlns="http://www.w3.org/2000/svg">
<g style="mix-blend-mode:luminosity" clip-path="url(#clip0_195_372)">
<path d="M0 41.907C0.223194 41.5643 0.476223 41.2424 0.756082 40.945C8.19707 34.3252 15.6394 27.712 23.083 21.1054L46.1483 0.625131C47.0842 -0.196919 47.4749 -0.210718 48.3853 0.629074C63.0172 14.0841 77.6498 27.5425 92.283 41.0041C92.544 41.2845 92.7837 41.5843 93 41.9011L92.8418 42.1751H91.3315C88.7605 42.1751 86.1914 42.2106 83.6222 42.1554C82.8408 42.1377 82.5653 42.4255 82.3719 43.1411C80.297 50.709 78.148 58.2751 76.0927 65.8608C75.8446 66.7755 75.4753 66.9983 74.5766 66.9963C55.2897 66.9687 36.0028 66.9687 16.7159 66.9963C15.8328 66.9963 15.5768 66.6789 15.3971 65.8943C13.6759 58.3283 11.8883 50.7702 10.1592 43.1982C9.9834 42.4294 9.74701 42.1278 8.90301 42.1475C6.01349 42.2106 3.12006 42.1712 0.228583 42.1712C0.156296 42.0825 0.078148 41.9898 0 41.907ZM31.1283 45.828C33.164 45.7018 34.8403 46.0606 36.2392 47.1981C40.2462 50.4528 41.6607 56.6329 39.4647 61.309C38.9177 62.4661 38.1264 63.505 37.4661 64.5676H43.0068C40.9945 62.6475 40.6623 60.272 40.9027 57.8493C41.2152 54.6951 41.7681 51.541 42.239 48.4065C42.3816 47.4563 42.5985 46.518 42.7665 45.6565C45.1754 47.1173 47.4554 48.5721 49.7998 49.8791C50.5656 50.3049 50.6321 50.508 50.1632 51.2255C49.0164 52.9879 48.1118 54.8824 48.0415 57.0449C48.0297 57.4057 48.397 57.7803 48.5885 58.1469C48.9363 57.869 49.4462 57.66 49.5966 57.2992C49.9229 56.4429 50.1803 55.5615 50.3664 54.6636C50.5188 54.0268 50.8079 53.7331 51.5112 53.7843C52.4646 53.8533 53.4259 53.8021 54.3832 53.8021V51.9806C54.3832 49.9461 55.1041 48.2725 56.8019 47.0897C58.1694 46.1375 59.5214 45.1775 60.887 44.2332C61.7564 43.6319 62.6122 43.6418 63.5167 44.2332C64.5287 44.9015 65.5935 45.4909 66.6426 46.1158L66.7345 45.9778L60.6213 40.6099C65.0445 36.0265 69.3466 31.5693 73.8694 26.8795C73.3868 26.8795 73.0879 26.7927 72.9179 26.8992C72.621 27.0825 72.3982 27.3881 72.1364 27.6424C65.9041 33.927 59.6855 40.2274 53.42 46.4785C52.578 47.3183 51.5405 47.9847 50.5129 48.5958C50.0909 48.8481 49.3251 48.99 48.9499 48.7614C47.3635 47.8407 45.8064 46.8334 44.5795 45.3647C44.7749 45.1558 44.8843 44.9981 45.0269 44.8699C48.3808 41.8144 51.7353 38.7588 55.0904 35.7032C56.0047 34.8673 56.8663 33.9743 57.7553 33.1109C58.2085 32.6732 58.2261 32.2198 57.8529 31.7309C56.7784 30.2919 55.7742 28.7936 54.6293 27.4157C51.0775 23.1438 47.4651 18.9212 43.884 14.667C42.4754 12.9638 41.0863 11.2369 39.6484 9.49223L30.2511 17.8389C33.7951 21.9334 37.2297 26.0002 40.7757 29.9646C43.4327 32.9354 46.246 35.7623 48.9675 38.676C49.8311 39.6005 49.8057 39.7582 48.7722 40.4778C46.7403 41.8932 44.6967 43.2968 42.6336 44.6629C41.1195 45.6664 39.5624 46.6067 37.9838 47.6002C37.8217 47.3282 37.7103 47.1744 37.6302 47.0088C36.7745 45.1696 35.9168 43.3323 35.0748 41.4891C34.5824 40.4147 33.8459 40.8977 33.0957 41.0948C32.2927 41.3117 32.1794 41.7986 32.3728 42.5004C32.6033 43.3421 32.8182 44.1878 33.0468 45.0513L31.1283 45.828ZM67.4671 41.2466C68.0376 41.838 68.5866 42.3565 69.0555 42.936C69.2508 43.1726 69.4364 43.6556 69.3251 43.8507C68.7605 44.8364 68.0962 45.7768 67.5042 46.6717C69.1974 48.5958 70.9681 50.6125 72.8163 52.7218C72.3513 52.9938 72.1423 53.1377 71.9157 53.2462C69.807 54.2647 67.6957 55.2786 65.5818 56.2879C65.1109 56.5127 64.56 56.9247 64.1575 56.8182C63.7902 56.7216 63.6535 55.939 63.2745 55.6354C62.7864 55.2983 62.2425 55.052 61.6685 54.908C61.5552 54.8745 61.2368 55.2313 61.1469 55.46C60.9027 56.077 61.0707 56.6073 61.6158 57.0134C61.9811 57.2874 62.3191 57.595 62.6727 57.8867C64.4311 59.3455 64.7495 61.1966 64.1009 63.3C63.97 63.7258 63.7902 64.1359 63.63 64.5636H67.1467L69.9659 54.2811L76.4131 55.8069C76.5205 55.4836 76.6085 55.2451 76.6807 54.9987C78.0132 50.234 79.3534 45.4732 80.6565 40.7005C80.8304 40.0599 81.0688 39.776 81.774 39.8174C82.9463 39.8844 84.1185 39.8351 85.2907 39.8351H87.6176L83.8352 36.3675C81.2153 38.4532 78.6403 40.4561 76.1259 42.53C75.4206 43.1214 75.0924 42.9735 74.7446 42.2402C74.1448 40.9686 73.5529 39.6892 72.8945 38.4473C72.2048 37.1423 71.9274 37.1462 71.0307 38.3645C71.3315 38.6996 71.6383 39.0387 71.9391 39.3797C72.8495 40.4147 72.8535 40.4384 71.9899 41.4792C71.5992 41.9504 71.185 42.4038 70.7454 42.9084L68.3795 40.3733L67.4671 41.2466ZM21.1644 53.5872L23.4014 52.3571C23.6163 52.8677 23.8136 53.2738 23.9563 53.6976C24.7495 56.0553 25.5342 58.4163 26.3105 60.7806C27.0919 63.1916 27.0919 63.1936 24.6694 63.7377C24.6147 63.7515 24.5463 63.714 24.4212 63.6864C24.1723 62.9933 23.8854 62.3148 23.5616 61.6539C23.4073 61.372 22.9755 61.029 22.7196 61.0625C22.0729 61.1513 22.3093 61.6677 22.4617 62.0581C22.7919 62.9038 23.1455 63.7396 23.4854 64.5656H30.4191C29.7822 64.059 29.2098 63.6391 28.6764 63.1738C26.582 61.3504 25.9061 58.8251 25.2887 56.2505C24.5365 53.118 25.4098 50.4685 27.5843 48.237C28.4263 47.3716 29.4676 46.7033 30.38 45.9759L26.5977 46.9438C24.6733 39.983 22.7762 33.1247 20.8811 26.2683L20.5334 26.2013C20.3595 26.6488 19.9473 27.1771 20.0528 27.532C21.0589 30.6861 22.1686 33.7969 23.2295 36.9294C23.9895 39.1688 24.6811 41.4201 24.5424 43.8291C24.306 47.9373 21.2465 51.0521 17.4622 50.7879C16.2899 50.7051 15.1431 50.0289 14.0197 49.6347C14.2014 50.4114 14.43 51.3813 14.6645 52.3788L20.041 51.9845C20.3458 53.9835 20.6272 55.8819 20.9378 57.8571L22.3718 57.4846C21.9576 56.1835 21.5825 54.9534 21.1605 53.5872H21.1644ZM65.0875 28.5847C66.3105 26.9189 67.4788 25.2807 68.7018 23.6859C69.1746 23.0669 69.0164 22.7101 68.4908 22.2389C66.2851 20.2577 64.1146 18.2351 61.9303 16.2283C60.1153 14.5645 58.2964 12.9026 56.415 11.1797L65.0875 28.5847ZM12.2927 33.7752L5.69699 39.634C7.4225 39.8232 9.15911 39.8891 10.8938 39.8312C11.5268 39.8174 11.8082 40.0047 11.9391 40.6552C12.236 42.1495 12.6229 43.628 12.9862 45.1637C13.2051 45.0493 13.3184 44.9941 13.4278 44.931C14.8344 44.0913 14.7954 44.1169 15.5436 45.5422C15.7781 45.9818 16.4443 46.5949 16.7471 46.5121C17.5012 46.3051 17.2336 45.4968 17.0304 45.004C15.5007 41.2919 13.9162 37.6036 12.2927 33.7752ZM55.1998 64.5932C55.0631 63.4439 54.8775 62.3281 54.8325 61.2084C54.8228 60.9462 55.2565 60.4751 55.5417 60.4199C56.5576 60.2464 57.6146 60.0887 58.355 61.169C58.484 61.3661 58.9021 61.3464 59.1854 61.4272C59.1678 61.1276 59.2362 60.7826 59.1111 60.5421C58.9208 60.1986 58.662 59.8986 58.3511 59.6609C56.7296 58.3776 55.3131 56.9385 54.6196 54.6892C53.6173 58.1292 53.4903 61.5889 51.7457 64.5873L55.1998 64.5932ZM33.7091 59.6865C33.7248 60.9896 34.3187 61.7289 35.3287 61.7013C36.288 61.6756 37.1809 60.5185 37.1887 59.2883C37.1887 58.21 36.4306 57.3071 35.5339 57.3387C34.6371 57.3702 33.7052 58.5846 33.7189 59.6865H33.7091ZM71.5757 60.5638L71.6578 60.9127C73.2051 61.5948 73.2051 61.5948 72.6444 63.1679C70.8411 62.8663 70.8411 62.8663 70.763 63.2448L72.6014 64.4276L72.5526 64.8002C73.0742 64.6129 73.887 64.5735 74.0667 64.2088C75.0201 62.3065 74.9029 62.064 73.1367 60.8575C72.8945 60.6939 72.6639 60.4633 72.3982 60.4021C72.1325 60.341 71.861 60.5047 71.5855 60.5638H71.5757ZM31.3842 38.2443L33.7404 37.8914C33.041 36.3143 32.4002 34.8673 31.7593 33.4184L31.4702 33.3317C31.3139 33.6313 31.015 33.9388 31.0287 34.2326C31.0931 35.5277 31.2592 36.817 31.3842 38.2443Z" fill="#6F6F6F"/>
<path d="M37.3252 23.656C39.1421 21.458 40.8712 19.3743 42.5885 17.2807C43.0202 16.7544 43.4012 16.7425 43.8603 17.2531C45.1908 18.7336 46.5506 20.1865 47.8791 21.6689C50.6234 24.7324 53.3586 27.8024 56.0846 30.879C56.2565 31.0762 56.4167 31.2733 56.6844 31.5927L50.1024 38.79L37.3252 23.656Z" fill="#6F6F6F"/>
<path d="M37.2023 20.7521C39.247 20.7521 40.9045 19.0796 40.9045 17.0165C40.9045 14.9533 39.247 13.2808 37.2023 13.2808C35.1576 13.2808 33.5 14.9533 33.5 17.0165C33.5 19.0796 35.1576 20.7521 37.2023 20.7521Z" fill="#FF1D1D"/>
</g>
<defs>
<clipPath id="clip0_195_372">
<rect width="93" height="67" fill="white"/>
</clipPath>
</defs>
</svg>
