<svg width="71" height="71" viewBox="0 0 71 71" fill="none" xmlns="http://www.w3.org/2000/svg">
<path d="M27.9837 60.5065C27.9657 60.4689 27.9608 60.4254 27.9398 60.415C27.5917 60.2432 27.5379 59.9298 27.5676 59.5947C27.6288 58.9002 27.8409 58.2452 28.1437 57.6209C28.5128 56.8609 29.0435 56.2172 29.655 55.6456C31.5209 53.9033 33.6848 52.7027 36.1716 52.1137C37.8847 51.7079 39.5256 51.9712 41.0886 52.741C41.411 52.8998 41.7066 53.135 41.9737 53.3798C42.3377 53.7135 42.5781 54.1238 42.4749 54.6716C42.8058 54.7525 42.8541 55.0138 42.8755 55.2873C42.9267 55.9413 42.7464 56.5448 42.4438 57.1119C42.2768 57.4246 42.0674 57.7146 41.8829 58.0181C41.848 58.0827 41.793 58.1343 41.7263 58.165C41.6596 58.1956 41.5847 58.2037 41.513 58.1881C41.2759 58.45 41.0758 58.6836 40.8626 58.9047C40.5268 59.2538 40.5541 59.4043 40.9872 59.6184C41.4344 59.84 41.8843 60.0618 42.3165 60.3073C43.3128 60.8718 44.3747 61.0878 45.5166 61.0203C50.4078 60.7339 54.6239 57.7095 56.4498 53.1447C57.825 49.7035 57.7966 46.2481 56.5045 42.7943C56.319 42.2983 56.0264 41.8428 55.7911 41.3644C55.5267 40.8273 55.2729 40.285 55.0105 39.7467C54.9777 39.6795 54.9213 39.6233 54.873 39.5642C54.6482 39.2895 54.3943 39.0344 54.2019 38.7392C53.032 36.9417 51.457 35.5765 49.6415 34.477C47.6521 33.2718 45.4753 32.6266 43.1743 32.3608C40.8567 32.0931 38.5677 32.2985 36.2904 32.7466C34.1755 33.1625 32.0998 33.7371 30.018 34.2866C28.0644 34.8022 26.1087 35.3038 24.1077 35.6197C22.8034 35.8308 21.4839 35.933 20.1628 35.9251C19.586 35.9195 19.0114 35.9811 18.4366 36.025C16.9755 36.1365 15.5309 36.049 14.109 35.6812C13.9151 35.6312 13.726 35.5671 13.536 35.5059C12.8719 35.2926 12.1962 35.1086 11.5475 34.8558C10.6645 34.5118 9.89124 33.9594 9.09703 33.4504C8.51771 33.0787 7.94553 32.6867 7.29325 32.457C6.71842 32.2548 6.12756 32.0952 5.53826 31.9381C4.44412 31.6468 3.51145 31.1196 2.815 30.1989C2.25724 29.4616 1.71838 28.7147 1.33497 27.8689C1.20822 27.5886 1.12587 27.2851 1.046 26.9863C1.01975 26.8891 1.01569 26.7872 1.0341 26.6882C1.05253 26.5891 1.09295 26.4955 1.15239 26.4142C1.33021 26.1595 1.52236 26.1387 1.71687 26.3762C1.82199 26.5054 1.91005 26.6476 1.97889 26.7993C2.09462 27.0516 2.20961 27.3075 2.28708 27.5725C2.48046 28.2331 2.86291 28.7713 3.33404 29.252C3.57457 29.4973 3.84388 29.7143 4.09285 29.9514C4.41376 30.257 4.72611 30.5714 5.04571 30.8785C5.09812 30.9291 5.16524 30.9896 5.23074 30.9969C5.70476 31.0489 6.17891 31.1054 6.65459 31.1271C7.05887 31.1455 7.28956 30.934 7.34389 30.5541C7.35343 30.4944 7.35043 30.4334 7.33508 30.375C7.31973 30.3166 7.29237 30.2621 7.25475 30.2149C7.04203 29.919 6.82075 29.6218 6.65145 29.2992C6.3339 28.6994 5.93388 28.1472 5.46306 27.6587C4.98017 27.1536 4.49317 26.6503 4.01081 26.1425C3.36241 25.4622 2.8146 24.7091 2.41335 23.8574C2.30148 23.6198 2.23715 23.3571 2.17295 23.1005C2.13027 22.9299 2.1943 22.7698 2.31844 22.6422C2.46143 22.4952 2.63594 22.4675 2.79343 22.6011C2.9302 22.7136 3.04722 22.8482 3.13966 22.9993C3.31243 23.2843 3.4646 23.5813 3.59502 23.8881C3.8442 24.4959 4.21986 25.012 4.66988 25.481C5.13029 25.9626 5.5935 26.442 6.06915 26.9087C6.99666 27.8181 7.67925 28.8845 8.15113 30.0931C8.27186 30.4036 8.40508 30.7094 8.53463 31.0165C8.91043 31.9087 9.5245 32.5958 10.3521 33.0825C12.0977 34.1125 14.0361 34.7725 16.0473 35.0216C16.9313 35.1333 17.8191 35.1153 18.7025 35.1741C19.3322 35.2161 19.9334 35.1388 20.5474 35.0384C21.6532 34.8575 22.7684 34.7343 23.875 34.5494C25.7041 34.2434 27.4987 33.7698 29.2934 33.3078C31.4218 32.7602 33.5458 32.1902 35.7168 31.8335C36.5816 31.6914 37.4521 31.5832 38.3223 31.4767C38.9619 31.3981 39.6038 31.3588 40.1828 31.7046C40.2093 31.6779 40.2216 31.6708 40.2254 31.662C40.3429 31.1974 40.343 31.1818 40.8202 31.1939C42.096 31.2268 43.3762 31.2408 44.6331 31.4864C46.5391 31.8589 48.2944 32.6206 49.9416 33.6388C51.8728 34.8319 53.5876 36.3445 55.0131 38.1122C55.1917 38.3325 55.3454 38.5532 55.3534 38.8527C55.3557 38.8903 55.3654 38.927 55.382 38.9608C55.3986 38.9946 55.4217 39.0248 55.4499 39.0497C55.8002 39.3122 55.9957 39.6921 56.2136 40.0506C57.8286 42.7116 58.6529 45.5948 58.5259 48.7174C58.2827 54.6562 54.6229 59.5665 48.7994 61.3302C48.1087 61.5384 47.4009 61.6846 46.6844 61.7672C45.8585 61.8643 45.0377 62.011 44.2172 62.1446C43.5845 62.248 43.0452 62.5457 42.586 62.9899C42.3563 63.2122 42.2972 63.3324 42.2573 63.6349C42.4208 63.7827 42.6377 63.7894 42.8422 63.7986C43.4294 63.8254 44.018 63.8574 44.6051 63.8453C45.4365 63.8293 46.2691 63.7983 47.0977 63.7297C47.5243 63.6946 47.9498 63.5882 48.3639 63.4709C48.8763 63.3264 49.3735 63.1285 49.8819 62.9699C50.1978 62.8708 50.5163 62.766 50.86 62.8625C50.9344 62.8835 51.0333 62.8461 51.1131 62.811C54.7574 61.2189 58.1269 59.2116 60.8912 56.293C62.5512 54.5428 63.9399 52.5892 65.1197 50.4903C65.6854 49.4836 66.2078 48.452 66.721 47.4171C66.8707 47.1145 66.9177 46.7607 67.011 46.4305C67.3616 45.1894 67.6989 43.9447 68.0667 42.7088C68.7515 40.4144 69.0733 38.0269 69.0206 35.6332C68.999 34.5784 69.0418 33.5225 69.0496 32.4671C69.051 32.2764 69.1038 32.1164 69.2465 31.9928C69.4423 31.8247 69.6578 31.8556 69.766 32.0894C69.8479 32.2602 69.9011 32.4434 69.9236 32.6316C69.9831 33.2276 70.0546 33.8261 70.0566 34.4242C70.0596 35.3565 70.0311 36.2914 69.9724 37.2212C69.936 37.8069 69.8071 38.386 69.7448 38.9706C69.6568 39.8308 69.5898 40.6953 69.5117 41.559C69.5005 41.6679 69.4775 41.7752 69.4431 41.8792C69.1378 42.8198 68.8267 43.7587 68.5226 44.6999C68.4659 44.8686 68.4245 45.042 68.3988 45.2181C68.3289 45.7454 68.1605 46.2386 67.8653 46.6771C67.6212 47.0388 67.5822 47.4677 67.4233 47.857C65.7373 51.9831 63.3423 55.6159 59.9863 58.5791C57.4721 60.7988 54.6268 62.4618 51.4542 63.5353C48.8307 64.4229 46.1346 64.942 43.3516 64.9171C41.3473 64.8994 39.3949 64.5972 37.5226 63.8543C35.8535 63.1916 34.4246 62.1786 33.2178 60.8521C33.0407 60.657 32.9171 60.4137 32.761 60.1983C32.7056 60.1218 32.6394 60.0296 32.558 60C32.3773 59.9345 32.2928 59.8066 32.2505 59.6375C32.1996 59.433 32.1344 59.2289 32.1143 59.0206C32.0686 58.556 32.2712 58.3032 32.7288 58.2335C32.8819 58.2064 33.0382 58.2026 33.1924 58.2221C33.7289 58.3071 34.2741 58.3666 34.795 58.5124C36.7545 59.0625 38.5957 58.6724 40.3853 57.8502C40.7683 57.6747 41.1372 57.4603 41.3364 57.0515C41.3656 56.9906 41.4165 56.9429 41.4791 56.9177C41.68 56.8585 41.7092 56.6989 41.7365 56.5304C41.7638 56.362 41.7724 56.1949 41.8253 56.0376C41.9521 55.6607 41.8597 55.3262 41.7041 54.9792C41.2134 53.8832 40.3254 53.3333 39.1944 53.1109C38.6265 52.9992 38.0446 52.9777 37.4699 53.0471C34.7361 53.3741 32.3567 54.4741 30.3552 56.373C29.6883 57.0057 29.1576 57.7426 28.8353 58.6169C28.3398 59.9607 28.5752 61.1975 29.3807 62.3443C29.9406 63.1403 30.6947 63.7226 31.5167 64.2232C32.5661 64.8623 33.6963 65.3211 34.8627 65.6895C36.1869 66.1068 37.5435 66.4127 38.9186 66.6039C40.8227 66.8705 42.7239 66.8478 44.6266 66.6035C46.2235 66.3952 47.8004 66.0546 49.3411 65.5852C49.8819 65.4211 50.3977 65.1779 50.9317 64.99C51.2762 64.8688 51.6309 64.773 51.9862 64.6862C52.138 64.6528 52.2945 64.6468 52.4484 64.6685C52.6388 64.692 52.7175 64.8153 52.6737 65.0016C52.6219 65.2213 52.5321 65.4287 52.3259 65.5501C52.1542 65.6519 51.9818 65.761 51.7946 65.8263C51.0308 66.0944 50.2694 66.377 49.4916 66.5994C47.9544 67.0405 46.4095 67.4483 44.8082 67.5896C42.7391 67.7694 40.657 67.7341 38.5954 67.4844C37.4372 67.3499 36.2898 67.1343 35.1618 66.8391C33.4576 66.3878 31.8252 65.7624 30.3694 64.7393C29.5435 64.1593 28.8308 63.4672 28.2818 62.6134C27.9775 62.1399 27.787 61.6211 27.6605 61.0763C27.6403 60.9897 27.6286 60.9013 27.6256 60.8123C27.6187 60.5887 27.6443 60.5662 27.8888 60.5389C27.9214 60.5314 27.9532 60.5205 27.9837 60.5065ZM42.5 61.9801C42.2308 61.6692 41.9177 61.4805 41.6164 61.2775C41.267 61.0425 40.9201 60.8042 40.5673 60.5745C40.4019 60.4669 40.2343 60.3547 40.0525 60.2812C39.2742 59.966 38.4536 59.8302 37.6236 59.7474C36.4328 59.6285 35.2323 59.6018 34.0546 59.3541C33.9285 59.3288 33.7756 59.3894 33.6452 59.4362C33.6208 59.4442 33.5985 59.4574 33.5797 59.4749C33.5609 59.4924 33.5461 59.5137 33.5363 59.5375C33.5265 59.5612 33.522 59.5868 33.523 59.6124C33.524 59.6381 33.5305 59.6632 33.5421 59.6861C33.6525 59.9125 33.7468 60.1646 33.9164 60.3398C34.2784 60.7135 34.6786 61.051 35.0722 61.3926C36.2702 62.4318 37.6884 62.9991 39.223 63.3064C39.844 63.4307 40.4123 63.2991 40.9188 62.9124C40.9806 62.8652 41.0439 62.8203 41.1055 62.7728C41.526 62.4454 41.9309 62.0938 42.5 61.9801Z" fill="#CBA382"/>
<path d="M11.9818 17.7753C11.9962 18.0717 11.9923 18.3697 12.028 18.6635C12.1644 19.7883 12.5988 20.8056 13.1881 21.7607C13.8019 22.7561 14.5613 23.6155 15.547 24.2602C15.9075 24.4968 16.2576 24.7569 16.6298 24.9764C16.8659 25.1199 17.1215 25.2284 17.3886 25.2986C17.9815 25.4429 18.5837 25.5475 19.1826 25.667C19.3732 25.7052 19.5479 25.7102 19.7016 25.5436C19.8656 25.3633 20.0804 25.3924 20.2916 25.4837C20.4833 25.1289 20.7994 25.0067 21.142 24.9259C21.8306 24.7656 22.5321 24.7508 23.2288 24.8015C24.1355 24.8673 25.0396 24.9755 25.9417 25.0881C26.4306 25.1493 26.8803 25.3513 27.3166 25.5748C27.6622 25.752 28.0116 25.9224 28.3492 26.1139C29.0044 26.4854 29.7073 26.6711 30.4555 26.6306C32.2269 26.5347 33.8834 26.9985 35.5153 27.6146C35.9407 27.7754 36.3624 27.946 36.7804 28.1264C37.1807 28.294 37.6078 28.3883 38.0414 28.4047C39.4929 28.4782 40.9446 28.5559 42.397 28.6067C45.3198 28.7093 48.0682 29.4538 50.6659 30.7893C52.6405 31.8042 54.4895 32.9996 56.1079 34.5298C57.1657 35.5287 58.0828 36.6362 58.7134 37.9607C58.9821 38.5251 59.1881 39.111 59.2816 39.7322C59.3169 39.9508 59.3212 40.1733 59.2944 40.3932C59.2603 40.645 59.0901 40.7342 58.856 40.6366C58.7241 40.5808 58.6065 40.4956 58.5122 40.3877C58.3974 40.2522 58.3036 40.1002 58.234 39.9367C58.1124 39.651 57.9886 39.361 57.9155 39.0607C57.6678 38.043 57.1332 37.1799 56.5149 36.3579C55.3408 34.7969 53.8624 33.5913 52.1754 32.6295C50.7524 31.8172 49.2492 31.1857 47.6866 30.7059C46.467 30.3313 45.23 30.0135 43.9991 29.6765C43.8486 29.6394 43.6944 29.6191 43.5394 29.616C42.8423 29.5847 42.1448 29.5499 41.4473 29.5375C40.7264 29.5232 40.0052 29.5309 39.284 29.5298C38.9734 29.5292 38.6626 29.5313 38.3522 29.5297C37.9542 29.5254 37.5569 29.5655 37.1676 29.6493C36.661 29.7599 36.1337 29.7721 35.6178 29.8458C35.2129 29.9036 34.8106 29.9826 34.4098 30.0654C33.6824 30.2159 32.9565 30.3742 32.2306 30.5328C31.8949 30.6062 31.5606 30.6866 31.2263 30.7654C31.14 30.7855 31.056 30.8215 30.9688 30.8323C29.5219 31.0126 28.1317 31.4627 26.704 31.7337C25.94 31.8786 25.1735 32.0376 24.3938 31.9859C23.981 31.9591 23.5857 32.0164 23.181 32.0494C22.6631 32.0893 22.1404 32.0528 21.6213 32.0189C20.9558 31.9755 20.2908 31.9046 19.6387 32.1036C19.4724 32.1544 19.2926 32.2188 19.1665 32.3307C18.6677 32.7724 18.0691 32.9456 17.4334 33.0321C16.3766 33.1755 15.3526 33.0194 14.3523 32.6772C13.0928 32.2459 11.9837 31.5707 11.0532 30.612C10.5673 30.1116 10.1752 29.5436 9.9364 28.8888C9.50139 27.693 8.81728 26.6478 8.06431 25.6375C7.3808 24.7201 6.68178 23.8121 6.13612 22.8004C6.07956 22.6958 6.01016 22.6282 5.88936 22.6016C5.80311 22.58 5.72126 22.5435 5.64745 22.4939C4.80298 21.9575 4.14251 21.2527 3.7114 20.3463C3.62794 20.1706 3.59751 19.9644 3.56943 19.7685C3.54454 19.5957 3.62046 19.4424 3.74258 19.3163C3.94136 19.1114 4.16607 19.1013 4.34124 19.33C4.48784 19.5214 4.59841 19.7434 4.70526 19.9619C4.84934 20.261 4.97365 20.5722 5.11295 20.8748C5.34009 21.3686 5.79035 21.4782 6.26797 21.5258C6.4286 21.542 6.54809 21.4393 6.60876 21.301C6.72887 21.0272 6.85204 20.7516 6.9362 20.4655C7.11787 19.8469 7.26802 19.2193 7.44577 18.6C7.5313 18.3036 7.65082 18.0174 7.76113 17.7042C7.48086 17.5759 7.45112 17.3119 7.41497 17.0443C7.28802 16.0977 7.14983 15.153 7.02687 14.2052C6.99437 13.9549 7.07896 13.8432 7.28434 13.7683C7.44043 13.712 7.57542 13.7391 7.66145 13.8833C7.74424 14.0141 7.81288 14.1533 7.86619 14.2987C8.21891 15.3537 8.43553 16.4495 8.51082 17.5595C8.5538 18.153 8.39066 18.73 8.23079 19.2974C8.09876 19.7683 7.9343 20.2296 7.79586 20.6986C7.61884 21.2973 7.47484 21.9026 7.52114 22.5355C7.62243 23.926 8.72518 25.3134 10.0631 25.6998C10.458 25.8106 10.8606 25.8924 11.2675 25.9444C13.3428 26.2238 15.2203 27.0083 16.9689 28.1383C17.369 28.3965 17.7897 28.623 18.2025 28.8619C18.6792 29.1368 19.1227 29.4448 19.3725 29.9612C19.3912 30.0014 19.419 30.0367 19.4538 30.0643C19.6475 30.2072 19.8478 30.3413 20.039 30.4878C20.3442 30.7192 20.6761 30.8901 21.0541 30.9655L22.9282 31.3408C22.9545 31.2623 22.9731 31.2136 22.987 31.1629C23.0232 31.0313 23.118 30.9737 23.2391 31.0092C23.7716 31.1594 24.3029 31.0564 24.8245 30.976C26.1511 30.7716 27.4733 30.5391 28.7952 30.3075C30.2152 30.0577 31.6173 29.7023 33.0615 29.5936C33.1477 29.5842 33.2281 29.5458 33.2897 29.4847C33.4493 29.3172 33.634 29.2929 33.8397 29.3542C34.0453 29.4155 34.2104 29.4128 34.3879 29.2533C34.4786 29.1717 34.6586 29.1679 34.7979 29.1682C34.9814 29.1686 35.0951 29.0916 35.1602 28.9344C35.2274 28.7685 35.1652 28.6311 35.0483 28.5117C35.0208 28.4769 34.986 28.4485 34.9463 28.4286C34.6092 28.3125 34.303 28.1 33.9487 28.0495C32.5643 27.8529 31.1708 27.7154 29.8041 27.4047C29.7628 27.3998 29.7211 27.3984 29.6795 27.4005C29.4404 27.9463 28.9458 28.1549 28.4085 28.3033C28.2372 28.3504 28.0635 28.3912 27.8977 28.4536C27.7938 28.4886 27.6996 28.5474 27.6223 28.6252C27.4654 28.8007 27.2701 28.8916 27.049 28.9413C24.5764 29.4987 22.3143 29.0675 20.2931 27.5013C20.1882 27.4217 20.0714 27.3591 19.9471 27.3159C18.4784 26.7985 17.0462 26.1954 15.7137 25.3866C13.8417 24.2499 12.4085 22.7085 11.5525 20.6693C11.0458 19.4649 10.8117 18.2062 10.8073 16.9005C10.8071 16.7983 10.7662 16.6932 10.7264 16.5967C10.6593 16.4328 10.5684 16.2787 10.5049 16.1139C10.3854 15.804 10.3349 15.4909 10.5449 15.2028C10.3795 15.1135 10.1994 15.0607 10.0854 14.9406C9.97147 14.8204 9.89723 14.6394 9.839 14.4735C9.58308 13.7415 9.33182 13.0049 9.09656 12.2647C9.03433 12.0514 8.99964 11.831 8.99334 11.6088C8.98317 11.3981 9.16225 11.2747 9.35277 11.369C9.50179 11.4406 9.63061 11.5483 9.72755 11.6823C9.90531 11.9491 10.0818 12.2271 10.1929 12.5244C10.3942 13.0641 10.5515 13.6198 10.716 14.1733C10.7553 14.3064 10.7864 14.411 10.9267 14.4793C11.1928 14.6088 11.3444 14.8567 11.4129 15.1278C11.5183 15.5437 11.7512 15.8559 12.0495 16.1522C12.5686 16.6681 13.0358 17.2382 13.5671 17.7412C15.1715 19.2614 17.0492 20.3322 19.1324 21.0523C20.7126 21.5989 22.3392 21.9522 23.9916 22.1772C25.7948 22.4233 27.6033 22.6306 29.4097 22.8538C30.8538 23.0323 32.2898 23.2562 33.7109 23.5718C33.9166 23.6139 34.1271 23.6271 34.3364 23.6109C35.151 23.5582 35.9563 23.6364 36.7559 23.7721C39.428 24.2208 42.0728 24.8187 44.6781 25.5628C45.9604 25.9312 47.1859 26.451 48.4269 26.9375C49.1493 27.221 49.8824 27.4785 50.6179 27.7272C50.8289 27.7937 51.0497 27.8234 51.2707 27.815C51.521 27.8097 51.6323 27.6492 51.5705 27.4063C51.5276 27.2371 51.4622 27.0592 51.3586 26.9214C51.1234 26.6135 50.8799 26.3067 50.6016 26.0396C49.2615 24.7531 47.7088 23.7654 46.0725 22.9033C44.4124 22.0262 42.683 21.3013 40.9514 20.5808C39.0565 19.7928 37.1547 19.0188 35.321 18.0916C33.6624 17.253 32.0615 16.3156 30.6566 15.091C29.9476 14.4724 29.3138 13.7668 28.6463 13.1C28.5834 13.0374 28.5215 12.9729 28.4627 12.907C27.5571 11.8746 26.4542 11.1432 25.1635 10.6723C24.4239 10.403 23.6998 10.0905 23.0237 9.67599C22.8893 9.59325 22.7093 9.57898 22.5474 9.54861C22.2419 9.49219 21.9339 9.45979 21.6996 9.21066C21.6407 9.14815 21.5179 9.14023 21.4215 9.12092C20.1141 8.85911 18.8097 8.59414 17.5012 8.34267C17.0399 8.25404 16.596 8.12463 16.1756 7.9155C15.8448 7.75088 15.5038 7.70507 15.1417 7.79867C14.9478 7.84662 14.7503 7.87845 14.5511 7.89385C14.419 7.90507 14.2858 7.89598 14.1564 7.86688C13.9591 7.82191 13.8584 7.68635 13.8375 7.48848C13.8166 7.2906 13.9077 7.14954 14.0749 7.09044C14.2703 7.02131 14.4841 6.95553 14.6865 6.96476C15.2508 6.99061 15.8164 7.03171 16.3751 7.11091C18.1226 7.36316 19.855 7.7101 21.5649 8.1502C21.8654 8.22672 22.1581 8.33368 22.4529 8.43015C22.526 8.45398 22.6075 8.47984 22.6616 8.53017C23.0437 8.88377 23.5405 8.98293 24.008 9.14428C25.5921 9.69129 27.0043 10.5402 28.2704 11.6264C29.2475 12.4644 30.2021 13.3306 31.1421 14.2098C32.7902 15.7531 34.664 16.9385 36.731 17.8294C38.7886 18.718 40.8497 19.5981 42.9036 20.4952C44.8466 21.3431 46.7703 22.2369 48.5856 23.3371C49.6232 23.9653 50.6272 24.644 51.4596 25.5361C51.7979 25.8989 52.0762 26.3189 52.373 26.7194C52.4384 26.8093 52.4826 26.9127 52.5024 27.0221C52.6425 27.8082 53.0148 28.5071 53.3178 29.2316C53.4087 29.4482 53.5929 29.5726 53.7901 29.6829C54.032 29.8178 54.2824 29.9408 54.5076 30.1013C54.7661 30.2858 54.823 30.511 54.7282 30.7718C54.6335 31.0327 54.4731 31.1255 54.2085 31.0531C53.8237 30.9478 53.5093 30.7183 53.239 30.4334C53.178 30.3695 53.1458 30.2517 53.1476 30.1595C53.151 29.9848 53.0634 29.9013 52.9225 29.8308C52.15 29.444 51.3787 29.0516 50.6071 28.6608C48.7552 27.7225 46.7742 27.1406 44.7849 26.5846C44.5589 26.527 44.3363 26.4569 44.1181 26.3745C43.5068 26.1272 42.8679 25.9972 42.2232 25.8701C40.7744 25.5847 39.3239 25.3058 37.88 24.9969C36.8137 24.7688 35.7353 24.6383 34.6546 24.5144C34.2913 24.4727 33.9289 24.4032 33.572 24.3317C32.1757 24.0521 30.7593 23.9475 29.3448 23.8058C27.0918 23.5807 24.8354 23.3841 22.6076 22.9601C20.3038 22.5215 18.0968 21.8011 16.0197 20.6993C15.3577 20.3485 14.7685 19.9003 14.1989 19.4193C13.6563 18.9607 13.1031 18.5149 12.5501 18.0679C12.3965 17.9438 12.2265 17.84 12.0642 17.7272L11.9818 17.7753ZM15.7275 32.0709C15.9655 32.0845 16.4341 32.1719 16.8918 32.1308C17.4405 32.0814 17.9796 31.9221 18.5235 31.8135C18.7547 31.7676 18.8839 31.61 18.8867 31.3971C18.8916 31.1881 18.8545 30.9803 18.7776 30.786C18.5814 30.3161 18.2375 29.9504 17.8603 29.6151C17.3649 29.1755 16.7866 28.8653 16.201 28.5741C14.4615 27.7097 12.6147 27.1533 10.7382 26.6826C10.6227 26.6536 10.5487 26.6885 10.4744 26.7659C10.2937 26.9568 10.1979 27.3961 10.3161 27.6329C10.5042 28.0109 10.6896 28.3922 10.9152 28.7475C12.0005 30.4596 13.5052 31.5884 15.7275 32.0709ZM27.8507 26.8293C27.65 26.7656 27.4572 26.7165 27.2725 26.6454C26.57 26.3747 25.8723 26.09 25.1675 25.8253C24.6699 25.6385 24.1659 25.461 23.6209 25.4815C22.9417 25.5065 22.2742 25.606 21.6336 25.8393C21.4172 25.9181 21.1911 26.0117 21.0164 26.1558C20.5387 26.5497 20.5985 26.7145 21.0429 26.9638C21.3728 27.1454 21.7123 27.3092 22.0597 27.4544C23.1244 27.91 24.2284 28.2369 25.3947 28.2866C26.1056 28.3167 26.7749 28.1849 27.3869 27.7754C27.7331 27.5424 27.897 27.2672 27.8507 26.8293Z" fill="#CBA382"/>
<path d="M30.178 3.78109C30.2161 3.43624 30.1503 3.08791 29.989 2.78092C29.7328 2.27448 29.3547 1.87435 28.8981 1.54497C28.8354 1.49837 28.7676 1.45994 28.7068 1.41203C28.415 1.18339 28.3781 0.891067 28.5982 0.59645C28.7282 0.424036 28.882 0.394577 29.0585 0.523525C29.1406 0.580897 29.211 0.65346 29.2659 0.737304C29.3941 0.945787 29.5772 1.07742 29.7887 1.18241C30.3146 1.44194 30.6791 1.86622 30.8394 2.41711C31.0769 3.23262 31.5998 3.80778 32.2496 4.29942C33.0798 4.92931 34.0048 5.38108 34.9722 5.75182C36.0223 6.15411 37.0975 6.47904 38.2245 6.56177C38.8218 6.60479 39.4214 6.60599 40.0188 6.56536C40.7591 6.51515 40.9474 6.17262 40.6589 5.48749C40.4303 4.94505 40.1743 4.41414 39.9435 3.87229C39.7045 3.31381 39.3135 2.88423 38.8355 2.52467C38.1993 2.04666 37.4839 1.71957 36.7465 1.43608C36.239 1.24083 35.7319 1.04466 35.1773 1.01973C35.0591 1.01409 34.9383 0.967426 34.8281 0.918467C34.7613 0.89091 34.7011 0.849416 34.6516 0.796741C34.602 0.744067 34.5643 0.681427 34.5408 0.61299C34.5174 0.544554 34.5088 0.4719 34.5156 0.399849C34.5224 0.327806 34.5444 0.258032 34.5803 0.195173C34.6653 0.0352019 34.8107 -0.00990309 34.9743 0.00175054C35.207 0.0157472 35.4388 0.0427311 35.6686 0.0825867C37.0352 0.349446 38.3033 0.858362 39.4603 1.64017C40.0955 2.06929 40.5658 2.62849 40.8486 3.34379C41.0484 3.85016 41.2657 4.35051 41.4479 4.86322C41.6754 5.5045 42.0837 5.98317 42.6826 6.28591C43.6128 6.75608 44.5514 7.20923 45.4905 7.66179C45.97 7.89396 46.4586 8.10551 46.9421 8.32931C47.779 8.72015 48.5593 9.22232 49.2619 9.82223C49.6517 10.1522 50.052 10.4703 50.4309 10.8124C51.4872 11.7699 52.7235 12.5071 54.0677 12.9809C55.1006 13.3468 55.9838 13.9376 56.8169 14.6361C58.0978 15.7096 59.2216 16.9388 60.3354 18.178C60.4465 18.3024 60.545 18.4368 60.6498 18.5667C61.0742 19.0859 61.3507 19.7101 61.4503 20.3736C61.5143 20.7908 61.5972 21.2053 61.6564 21.623C61.77 22.4239 62.0835 23.1382 62.5657 23.7794C62.7323 24.0017 62.8855 24.2349 63.0623 24.4484C64.0065 25.5872 64.6234 26.8984 65.0785 28.2926C65.2678 28.8752 65.4571 29.4577 65.5986 30.0498C65.6812 30.3962 65.9175 30.4061 66.1245 30.2062C66.2369 30.099 66.3386 29.9811 66.4282 29.8541C67.0209 29.0012 67.3437 28.0631 67.3547 27.0151C67.3672 25.8371 67.1742 24.6907 66.8629 23.5616C66.3122 21.5583 65.5576 19.6391 64.434 17.8826C64.0457 17.2748 63.6137 16.6937 63.2062 16.0974C62.7918 15.4912 62.4081 14.8677 62.1229 14.1869C62.0849 14.0966 61.9893 14.024 61.9069 13.9599C61.716 13.8113 61.5108 13.6804 61.3233 13.5281C61.2305 13.4481 61.1503 13.3545 61.0856 13.2504C60.5375 12.4139 59.8069 11.7484 59.0809 11.0768C58.7682 10.7937 58.4705 10.4944 58.1889 10.1802C58.0392 10.0093 57.9381 9.78959 57.8389 9.58216C57.7656 9.4286 57.7491 9.24761 57.8735 9.10878C58.0109 8.95555 58.2064 8.97426 58.3703 9.04214C58.5937 9.13489 58.8222 9.23818 59.0114 9.385C59.3192 9.62225 59.6091 9.88181 59.8789 10.1616C60.9523 11.2868 61.9491 12.4829 62.8627 13.7418C63.6551 14.8287 64.4348 15.9227 65.1281 17.0766C66.231 18.9113 67.1787 20.8182 67.7926 22.8777C68.1983 24.2385 68.4407 25.6238 68.3578 27.0516C68.2946 28.1428 68.0483 29.1825 67.4768 30.1298C67.3045 30.4149 67.1529 30.7117 66.9768 30.9954C66.4173 31.8947 66.2007 32.8776 66.2438 33.9259C66.2715 34.636 66.2922 35.3476 66.3453 36.0567C66.4306 37.1927 66.3808 38.3224 66.2399 39.4502C66.068 40.8299 65.8715 42.2069 65.5469 43.5597C65.3632 44.3259 65.1192 45.0774 64.8982 45.8345C64.8435 46.023 64.7577 46.1845 64.5206 46.1922C64.3797 46.198 64.3342 46.2947 64.35 46.4245C64.3687 46.5791 64.3957 46.7326 64.4086 46.8873C64.4297 47.1434 64.4073 47.1842 64.1471 47.2475C64.0926 47.2571 64.0421 47.2826 64.002 47.3209C63.9619 47.3591 63.934 47.4084 63.9219 47.4625C63.8776 47.6238 63.8279 47.7841 63.8148 47.9496C63.7737 48.4809 63.5981 48.9686 63.3658 49.4412C62.3243 51.561 61.1162 53.5787 59.6773 55.4539C59.4602 55.7355 59.225 56.0027 58.9732 56.2537C58.8091 56.4192 58.6214 56.5592 58.4161 56.6691C58.0696 56.8513 57.867 56.71 57.8532 56.3137C57.8463 56.1261 57.9119 55.9748 58.0261 55.8258C58.6949 54.9525 59.368 54.082 60.0171 53.1949C61.5109 51.1527 62.631 48.9142 63.4868 46.5369C64.2552 44.4128 64.8023 42.215 65.1194 39.9785C65.5384 36.9967 65.5671 34.0198 64.947 31.0593C64.5283 29.0604 63.8181 27.178 62.6798 25.4723C62.464 25.1493 62.229 24.8374 61.9885 24.5329C61.5498 23.9704 60.9996 23.505 60.3724 23.1659C60.2651 23.1076 60.1626 23.0388 60.0509 22.9902C58.5816 22.3488 57.3889 21.329 56.2322 20.245C54.6739 18.7844 53.4155 17.1133 52.476 15.1928C52.0015 14.2229 51.445 13.2993 50.7335 12.479C49.5236 11.0834 48.068 10.0018 46.431 9.17056C45.1545 8.52313 43.8623 7.90726 42.572 7.28838C42.415 7.21304 42.2347 7.18168 42.0618 7.14876C41.9867 7.13813 41.9103 7.15386 41.8455 7.19327C41.6077 7.34016 41.3356 7.42217 41.0564 7.43114C40.0373 7.47998 39.0205 7.56809 37.9974 7.48712C37.0331 7.41454 36.084 7.2051 35.1786 6.8651C34.1622 6.47944 33.1572 6.06406 32.1504 5.65411C32.0092 5.59658 31.8576 5.52025 31.7616 5.40878C31.6417 5.26904 31.5008 5.22243 31.3376 5.18021C30.0586 4.8492 28.7818 4.5108 27.5034 4.17888C26.6871 3.96707 25.8705 3.75519 25.0501 3.55823C24.8448 3.51308 24.6343 3.49623 24.4244 3.50816C23.3711 3.55287 22.3187 3.61002 21.266 3.662C20.8825 3.68085 20.6682 3.36051 20.8158 3.0003C20.8724 2.86219 20.9901 2.83097 21.1097 2.81781C21.5286 2.77336 21.9481 2.73107 22.3685 2.70293C24.4961 2.5595 26.5761 2.8562 28.6282 3.39549C28.9718 3.48575 29.3123 3.58695 29.656 3.67656C29.8152 3.71524 29.979 3.74123 30.178 3.78109ZM53.3698 13.8107C53.2346 14.1464 53.1607 14.4663 53.3011 14.8157C53.4709 15.2378 53.6213 15.6682 53.7697 16.0983C53.8337 16.2881 53.9562 16.4148 54.1209 16.5226C54.2667 16.6179 54.4165 16.7255 54.5223 16.861C55.3 17.8599 56.1482 18.8016 57.0605 19.679C57.6434 20.2383 58.2605 20.7656 58.8936 21.2678C59.1652 21.4832 59.506 21.625 59.834 21.7513C60.2737 21.9203 60.58 21.7097 60.6171 21.2361C60.6308 21.0622 60.6272 20.8732 60.5739 20.71C60.4831 20.425 60.3649 20.1495 60.2208 19.8874C59.6863 18.9375 59.0259 18.0727 58.3459 17.224C58.1839 17.0262 58.0043 16.8433 57.8094 16.6778C57.449 16.3653 57.0682 16.0756 56.8046 15.6668C56.771 15.6228 56.7304 15.5846 56.6845 15.5535C56.2728 15.2328 55.8708 14.9011 55.448 14.5982C55.1775 14.405 54.8908 14.2357 54.591 14.0923C54.2125 13.9113 53.8118 13.7834 53.3698 13.8107Z" fill="#CBA382"/>
<path d="M31.0369 8.38077C30.9052 8.5988 30.9318 8.78182 31.0653 8.95698C31.8871 10.0362 32.7353 11.0956 33.727 12.024C34.5989 12.8392 35.605 13.4785 36.6734 14.007C38.6122 14.9664 40.5679 15.8884 42.5491 16.76C43.7741 17.2991 44.9443 17.9712 46.1125 18.631C48.0264 19.7108 49.9091 20.8452 51.6659 22.1733C52.241 22.6081 52.8173 23.0442 53.2525 23.6348C53.2841 23.6775 53.3361 23.706 53.3789 23.7404C53.7418 24.0317 54.1242 24.3016 54.4633 24.6183C55.0645 25.1813 55.7493 25.5492 56.5632 25.6965C57.141 25.801 57.7154 25.9337 58.2829 26.0862C58.8959 26.2508 59.4133 26.59 59.857 27.0448C60.4186 27.6205 60.8858 28.2683 61.3067 28.9507C62.051 30.157 62.6681 31.4216 63.0771 32.7831C63.3114 33.5636 63.3888 34.3464 63.1811 35.1497C62.7996 36.6113 62.7158 38.1096 62.6444 39.6105C62.5817 40.9422 62.5215 42.2751 62.3947 43.6021C62.2364 45.2415 61.7676 46.8068 61.0796 48.3019C60.972 48.5199 60.8235 48.7152 60.6422 48.8771C60.4402 49.064 60.2537 48.9868 60.1611 48.7246C60.0862 48.5125 60.1315 48.3102 60.1969 48.1057C60.4309 47.3754 60.6565 46.6425 60.893 45.913C61.199 44.9691 61.4249 44.0091 61.5342 43.0203C61.6761 41.7381 61.8046 40.4564 61.8244 39.1637C61.8317 38.6709 61.7157 38.2419 61.4339 37.8206C60.0568 35.7611 58.7118 33.6804 57.3417 31.6162C57.0172 31.1267 56.6425 30.6701 56.2853 30.2027C56.0631 29.9117 55.8179 29.6373 55.6045 29.3399C55.1975 28.773 54.9031 28.1466 54.8017 27.4543C54.6572 26.4651 54.2114 25.649 53.5027 24.9607C53.3676 24.8292 53.2488 24.6784 53.1041 24.5592C52.9702 24.4468 52.8219 24.3529 52.663 24.2799C52.4221 24.1725 52.2021 24.0637 52.1323 23.7757C52.1202 23.7413 52.1011 23.7096 52.0763 23.6828C52.0515 23.6559 52.0216 23.6344 51.9882 23.6196C51.3012 23.3458 50.7088 22.9106 50.1013 22.503C49.5852 22.1569 49.0741 21.8027 48.5736 21.4346C47.5505 20.682 46.4387 20.0798 45.3244 19.4801C44.376 18.9702 43.4357 18.4473 42.5698 17.8007C42.4672 17.724 42.3328 17.6852 42.2088 17.6426C42.0072 17.5713 41.8238 17.4975 41.7215 17.2765C41.6791 17.1843 41.5422 17.1211 41.4353 17.0762C40.5761 16.7149 39.7096 16.3718 38.8536 16.0033C36.4703 14.9835 34.2848 13.5521 32.3967 11.7746C31.8635 11.2726 31.3647 10.7336 30.8653 10.1972C29.4861 8.7146 27.8036 7.7217 25.9002 7.0767C24.2418 6.51483 22.5289 6.19358 20.8028 5.94629C19.9918 5.82985 19.1664 5.81434 18.3485 5.74313C18.1057 5.7175 17.8646 5.67808 17.6262 5.62505C17.5179 5.60194 17.4138 5.56215 17.3177 5.5071C17.1777 5.42698 17.0921 5.20082 17.1255 5.04104C17.1632 4.85253 17.3123 4.80442 17.4735 4.78871C17.5839 4.77727 17.6951 4.77674 17.8056 4.78714C18.6 4.86896 19.3941 4.95582 20.1883 5.03861C21.7893 5.20888 23.3795 5.46857 24.9515 5.81647C26.3717 6.12812 27.7875 6.45953 29.1987 6.81067C30.5341 7.14345 31.8694 7.48165 33.1874 7.877C34.0786 8.14295 34.9389 8.51198 35.8157 8.82748C36.4734 9.06436 37.1288 9.31067 37.7969 9.51358C38.7664 9.81364 39.7874 9.90941 40.7959 9.79484C41.8495 9.67191 42.8236 9.87854 43.7655 10.3289C45.3187 11.0713 46.8505 11.8509 48.2567 12.8569C48.8633 13.2912 49.4315 13.7692 49.9296 14.3274C50.3794 14.8315 50.7228 15.3948 50.9295 16.0418C51.0881 16.5382 51.2582 17.0315 51.427 17.5249C51.4529 17.5982 51.489 17.6676 51.5343 17.7308C51.9581 18.3304 52.4 18.9132 52.9704 19.3872C54.0716 20.3029 55.1694 21.2227 56.2637 22.1467C56.7888 22.5923 57.3006 23.0518 57.8192 23.5043C58.0059 23.6669 58.0651 23.867 58.0022 24.1046C57.9282 24.3843 57.6947 24.5264 57.416 24.4495C57.3215 24.4186 57.2322 24.3736 57.1511 24.3161C57.0855 24.2737 57.0272 24.221 56.9783 24.16C56.0533 22.9767 54.8225 22.1168 53.744 21.0954C53.4702 20.8363 53.1703 20.6061 52.8882 20.3542C51.9136 19.4915 50.8078 18.8595 49.6075 18.355C48.0433 17.6968 46.4934 17.0052 44.9576 16.28C43.3353 15.5126 41.8518 14.5191 40.4873 13.3489C40.0634 12.9855 39.6545 12.6065 39.3606 12.1303C38.8005 11.2232 37.9975 10.6356 37.0293 10.2269C35.2242 9.46542 33.3754 8.84837 31.4577 8.44222C31.3184 8.41297 31.1767 8.40092 31.0369 8.38077ZM50.2186 17.6781C50.3911 17.3382 50.398 17.2919 50.3229 16.9708C50.1572 16.2599 49.792 15.6581 49.3147 15.118C48.7219 14.4471 48.0094 13.9188 47.2784 13.4132C46.485 12.8649 45.6908 12.3176 44.8957 11.7712C44.8416 11.7332 44.7837 11.7008 44.723 11.6747C44.2331 11.4673 43.7478 11.2476 43.2501 11.0611C42.7124 10.8598 42.1672 10.6679 41.6135 10.5145C41.2349 10.4114 40.8333 10.4311 40.4664 10.5707C40.1728 10.679 40.0658 10.8482 40.0903 11.1588C40.0963 11.2586 40.1137 11.3573 40.1422 11.4531C40.293 11.9258 40.5301 12.3508 40.9133 12.6764C41.1667 12.8916 41.4263 13.1012 41.6967 13.2939C43.3343 14.4616 45.0727 15.4626 46.8485 16.402C47.6043 16.8009 48.3618 17.1925 49.2045 17.3865C49.5496 17.4641 49.884 17.5801 50.22 17.6784L50.2186 17.6781ZM55.96 27.4405C55.8354 27.6844 55.9008 27.9552 56.0973 28.2169C56.2049 28.3582 56.2777 28.5229 56.3808 28.6685C57.0622 29.6407 57.7485 30.6104 58.4297 31.5815C58.9387 32.3081 59.4777 33.0168 59.8527 33.8282C60.0709 34.3019 60.302 34.7692 60.5287 35.2394C60.6927 35.5786 60.8582 35.9134 61.2605 36.0416C61.395 36.0846 61.5103 36.1863 61.643 36.2384C61.8888 36.3349 61.9942 36.272 62.0421 36.0194C62.0618 35.9212 62.0713 35.821 62.0906 35.7228C62.3316 34.504 62.341 33.308 61.8869 32.1193C61.3392 30.6864 60.6642 29.336 59.6352 28.1846C59.2334 27.7348 58.7804 27.3466 58.2391 27.0704C57.7212 26.8063 57.1773 26.6909 56.5975 26.7798C56.1064 26.8554 56.1064 26.8557 55.9886 27.3471C55.9854 27.3581 55.9819 27.3686 55.96 27.4405Z" fill="#CBA382"/>
<path d="M18.0926 52.9077C17.5823 52.8055 17.119 52.7427 16.673 52.6166C16.0116 52.4293 15.3562 52.2167 14.71 51.9804C13.529 51.5453 12.2659 51.3791 11.0125 51.4939C10.052 51.581 9.08567 51.6088 8.13727 51.8155C7.85467 51.8757 7.5639 51.8872 7.27748 51.8496C6.31957 51.7217 5.36875 51.5483 4.46764 51.1793C4.26347 51.0933 4.06661 50.9908 3.87901 50.8728C3.77508 50.809 3.686 50.7236 3.61775 50.6224C3.41432 50.3141 3.58553 49.96 3.9536 49.9639C4.20803 49.9714 4.45979 50.0179 4.70007 50.1018C5.0994 50.2349 5.49099 50.3964 5.87682 50.5645C6.53595 50.8535 7.23506 50.9019 7.9333 50.88C8.65181 50.8571 9.37067 50.7747 10.0872 50.6986C10.9482 50.6076 11.806 50.5057 12.6757 50.5665C13.4585 50.6211 14.208 50.81 14.9448 51.0644C15.8153 51.3654 16.6833 51.671 17.5941 51.8384C18.9572 52.0889 20.2502 51.9152 21.4537 51.2156C22.1076 50.836 22.7409 50.4253 23.3733 50.0127C23.9991 49.6039 24.6396 49.2356 25.3652 49.0262C25.5838 48.9631 25.7882 48.8351 25.9851 48.7142C27.0958 48.0336 28.1018 47.2067 29.1507 46.4401C29.5094 46.177 29.837 45.8991 30.1152 45.5439C30.5999 44.9295 31.2258 44.4595 31.8573 44.0032C31.9643 43.9259 32.0567 43.8566 32.1235 43.7232C32.1824 43.5989 32.3238 43.4835 32.4548 43.4267C32.7391 43.3043 33.0406 43.2179 33.3351 43.1241C34.6778 42.7002 36.0508 42.582 37.4478 42.7361C37.9104 42.7873 38.3712 42.853 38.834 42.9048C38.9325 42.9162 39.0322 42.9133 39.1298 42.896C40.7191 42.6007 42.3542 42.6678 43.9135 43.0925C46.0511 43.6717 47.8757 44.7614 49.2574 46.5179C50.6331 48.269 51.2147 50.2625 50.9454 52.4815C50.5333 55.8636 48.6239 58.0663 45.509 59.2807C45.0483 59.4608 44.5424 59.5239 44.0571 59.6367C43.9699 59.6541 43.8811 59.6624 43.7921 59.6613C43.2338 59.6706 43.0157 59.454 43.0019 58.8542C43.0751 58.828 43.1527 58.7918 43.2349 58.7705C43.7501 58.6354 44.2688 58.5119 44.7817 58.3681C47.197 57.6914 48.804 56.1076 49.6873 53.807C50.3151 52.1742 50.1585 50.5201 49.4488 48.9373C48.4429 46.6945 46.741 45.1704 44.4674 44.2906C42.4516 43.5105 40.4124 43.5317 38.3694 44.2112C38.2037 44.2662 38.0818 44.3439 37.9955 44.508C37.8116 44.8579 37.5246 45.1248 37.2204 45.3689C36.3615 46.0588 35.3986 46.5536 34.3541 46.8956C33.8629 47.0563 33.3544 47.0882 32.8464 47.1247C32.0498 47.181 31.2538 47.244 30.4584 47.3137C30.3715 47.3211 30.261 47.3674 30.2109 47.4343C30.0538 47.6411 29.8389 47.7486 29.6056 47.8237C29.416 47.8878 29.2217 47.9344 29.0273 47.9802C28.6889 48.0605 28.3861 48.1922 28.1086 48.4202C27.9104 48.5848 27.6446 48.6796 27.3948 48.7593C27.0671 48.862 26.7565 49.0133 26.4737 49.2083C25.192 50.0893 23.9112 50.9698 22.6124 51.8262C22.1511 52.136 21.6624 52.4028 21.1524 52.6231C20.7884 52.777 20.4794 52.9605 20.1977 53.238C19.9804 53.4525 19.703 53.6155 19.4319 53.7655C17.8996 54.6078 16.306 55.3099 14.6281 55.8086C13.905 56.0243 13.1713 56.2096 12.4028 56.1459C12.3389 56.1406 12.273 56.1645 12.2076 56.1732C11.9458 56.2076 11.6836 56.2725 11.4221 56.2695C10.8362 56.2618 10.2498 56.2325 9.66543 56.1883C8.93834 56.1336 8.25002 55.926 7.59228 55.6115C7.45424 55.5454 7.30108 55.5106 7.15466 55.4626C6.93366 55.3897 6.70473 55.3326 6.49348 55.2416C6.28222 55.1507 6.14476 54.9747 6.10572 54.7351C6.06498 54.4886 6.15535 54.3311 6.40215 54.3141C6.61194 54.2954 6.82337 54.3126 7.02733 54.3651C7.51674 54.5067 8.01138 54.6476 8.4763 54.852C9.1764 55.1604 9.90826 55.2372 10.654 55.2497C11.6555 55.2668 12.6474 55.1621 13.6329 54.984C14.5021 54.8265 15.3245 54.5364 16.1256 54.1671C16.669 53.9165 17.231 53.706 17.7888 53.4875C17.9042 53.4425 17.978 53.3913 17.9985 53.2636C18.0141 53.1568 18.052 53.0541 18.0926 52.9077ZM37.0242 43.9462C36.9642 43.9063 36.938 43.8813 36.9084 43.8713C36.8347 43.847 36.7595 43.8268 36.6828 43.8091C35.3396 43.4989 34.0623 43.7013 32.8466 44.3273C32.3185 44.5926 31.863 44.9831 31.5198 45.4647C31.4278 45.5897 31.3496 45.7244 31.2867 45.8664C31.2088 46.0516 31.2787 46.1626 31.4805 46.1989C31.5898 46.2175 31.7007 46.2255 31.8116 46.223C32.3651 46.2175 32.9189 46.2007 33.4727 46.2003C34.2674 46.1994 34.9298 45.8746 35.5229 45.3776C35.9551 45.0158 36.349 44.6018 36.9008 44.4386C36.9461 44.2601 36.9834 44.111 37.0242 43.9462Z" fill="#CBA382"/>
<path d="M33.8612 39.6378C33.885 39.3491 34.0298 39.2661 34.2712 39.2882C34.4 39.3001 34.5363 39.2732 34.6654 39.2433C36.6434 38.801 38.6412 38.7119 40.6558 38.8835C42.5348 39.0443 44.3676 39.4226 46.1417 40.0655C48.2539 40.8306 50.1842 41.9 51.7741 43.515C53.7358 45.5077 54.7144 47.9021 54.6358 50.7069C54.6218 51.2028 54.521 51.7008 54.4208 52.1896C54.2189 53.1704 53.9785 54.1435 53.5382 55.0503C53.375 55.3866 53.1593 55.7015 52.9358 56.0026C52.8606 56.1078 52.7592 56.1914 52.6416 56.2451C52.5241 56.2988 52.3946 56.3207 52.266 56.3086C51.9623 56.2853 51.8209 56.1153 51.8886 55.8164C51.9305 55.6442 51.9944 55.478 52.0787 55.3221C52.1778 55.1355 52.2898 54.9562 52.414 54.7853C53.1088 53.8164 53.429 52.7079 53.5358 51.5464C53.7994 48.6819 52.7537 46.2761 50.8628 44.1951C49.8654 43.0982 48.6465 42.226 47.2869 41.6364C46.7965 41.4214 46.331 41.1689 45.935 40.7985C45.8525 40.7263 45.752 40.678 45.6442 40.6586C44.0065 40.3606 42.3681 40.0665 40.7289 39.7764C40.078 39.662 39.4211 39.7187 38.7706 39.7787C37.7543 39.8748 36.7412 40.0035 35.7265 40.1138C35.3522 40.1542 34.9767 40.1808 34.5964 40.2143C34.4586 40.4964 34.4509 40.4687 34.1106 40.5622C33.1253 40.8326 32.1363 41.1145 31.2547 41.6461C30.3519 42.1907 29.4904 42.8038 28.5931 43.3577C28.1559 43.6276 27.8361 43.9516 27.6043 44.4246C27.1889 45.2718 26.5488 45.9606 25.8463 46.5827C24.1301 48.0994 22.163 49.13 19.9185 49.6075C19.1326 49.7749 18.336 49.8397 17.5356 49.7406C17.2068 49.7 16.8688 49.6527 16.5603 49.5399C14.8973 48.9315 13.1837 48.717 11.4213 48.7937C9.32723 48.8849 7.28146 48.5855 5.27599 47.9865C4.43582 47.7358 3.60234 47.462 2.82665 47.0422C2.65149 46.9476 2.48175 46.8411 2.3164 46.7297C2.2146 46.6623 2.12064 46.5838 2.03625 46.4955C1.88041 46.3299 1.74262 46.147 1.85212 45.9007C1.93131 45.7225 2.1962 45.6323 2.47108 45.6958C2.67412 45.743 2.89338 45.7855 2.90585 46.0712C2.91291 46.2057 3.02586 46.2444 3.13712 46.2745C4.28335 46.584 5.42506 46.9127 6.57713 47.1982C7.69873 47.4763 8.83901 47.673 9.99577 47.7195C10.6163 47.7404 11.2375 47.7285 11.8567 47.6836C12.5037 47.641 13.1152 47.4411 13.7089 47.1739C15.3698 46.4264 17.0277 45.6712 18.704 44.9601C20.2398 44.3091 21.823 43.786 23.4619 43.462C24.2121 43.3133 24.9723 43.2198 25.7317 43.1166C26.9217 42.9559 28.0591 42.6343 29.0965 42.0172C29.5635 41.7393 30.0035 41.4159 30.4602 41.1203C30.9168 40.8247 31.3665 40.5141 31.8438 40.2546C32.1917 40.0656 32.5795 39.9503 32.9492 39.8003C33.2277 39.6879 33.5041 39.5673 33.8612 39.6378ZM17.2829 48.7223C17.8649 48.8463 18.4521 48.8407 19.0373 48.7638C20.8072 48.5307 22.4167 47.8648 23.915 46.9122C24.4884 46.5477 25.027 46.1365 25.4859 45.6323C25.5857 45.5229 25.6401 45.3715 25.7141 45.2396C25.7726 45.1376 25.8452 45.0415 25.8898 44.9343C25.9422 44.8087 26.0113 44.6673 25.9997 44.5404C25.9837 44.3806 25.8291 44.3207 25.6724 44.3176C25.3296 44.3112 24.9849 44.2854 24.644 44.309C23.8541 44.3643 23.0933 44.583 22.3369 44.7951C20.2185 45.3866 18.1567 46.1464 16.1126 46.9527C15.9679 47.0092 15.8281 47.0778 15.6948 47.1577C15.2768 47.4103 15.2533 47.6108 15.6262 47.918C16.1112 48.3174 16.6541 48.6113 17.2829 48.7223Z" fill="#CBA382"/>
<path d="M39.2028 34.9672C39.1861 34.7109 39.3332 34.625 39.5332 34.5598C40.9782 34.0888 42.4588 33.9339 43.9686 34.0476C45.1407 34.136 46.2732 34.3873 47.3285 34.9247C48.164 35.3514 48.8905 35.9115 49.3559 36.7451C49.8633 37.6545 50.5705 38.3823 51.3566 39.0436C52.2423 39.7887 53.0879 40.5742 53.7722 41.5146C53.9929 41.8182 54.1785 42.1491 54.3631 42.4768C54.4438 42.6206 54.4877 42.7884 54.376 42.9559C53.9326 43.0918 53.5356 43.0116 53.2305 42.6561C52.7969 42.1509 52.3631 41.6436 51.9672 41.1096C51.2363 40.1234 50.2888 39.4459 49.1539 39.0068C48.404 38.7178 47.6246 38.5477 46.8376 38.4051C45.9968 38.2524 45.1541 38.1081 44.3153 37.9456C43.3757 37.7636 42.4758 37.4411 41.5705 37.1389C40.6439 36.8274 39.7129 36.5334 38.7282 36.4625C37.814 36.3969 36.9099 36.4248 36.0291 36.7165C35.618 36.8527 35.2057 36.9846 34.7929 37.1178C34.4126 37.2411 34.0328 37.3635 33.6096 37.3363C33.5749 37.5771 33.4152 37.6599 33.2042 37.7136C33.0129 37.7625 32.8314 37.8541 32.6494 37.9378C30.614 38.8803 28.5872 39.8425 26.5418 40.7656C24.1312 41.8531 21.6787 42.8363 19.1261 43.5451C17.518 43.9921 15.8897 44.3444 14.2149 44.3675C13.3626 44.3793 12.5095 44.2983 11.6575 44.2478C10.6391 44.1876 9.62198 44.1061 8.6031 44.0518C8.14719 44.0305 7.69108 44.0905 7.25605 44.229C7.10749 44.2748 6.95234 44.3009 6.80789 44.3568C5.83221 44.7336 4.86697 44.622 3.9106 44.2913C3.13558 44.0226 2.36427 43.7433 1.59667 43.4534C1.40221 43.3805 1.22065 43.2617 1.04962 43.1396C0.79827 42.962 0.757749 42.6822 0.920672 42.4051C1.05691 42.173 1.27432 42.0957 1.55211 42.2211C1.90572 42.3804 2.24179 42.5781 2.5956 42.7364C3.07935 42.9555 3.56833 43.1654 4.06307 43.3585C4.44942 43.5049 4.86523 43.5567 5.27574 43.5094C6.18028 43.4182 7.0845 43.3184 7.98904 43.2222C8.02369 43.2189 8.05436 43.21 8.08718 43.204C8.48621 43.1314 8.61215 42.8285 8.38566 42.4809C8.35535 42.4342 8.32015 42.3908 8.28066 42.3516C7.15666 41.2435 6.0169 40.1564 4.59708 39.4186C3.85805 39.0347 3.13204 38.63 2.39897 38.2367C1.59243 37.8029 0.934982 37.1984 0.379834 36.4786C0.243423 36.3037 0.130318 36.1118 0.0433576 35.9077C-0.0768534 35.6185 0.0597457 35.4133 0.372709 35.4191C0.537126 35.4273 0.696401 35.4791 0.834266 35.5691C1.00177 35.6786 1.14995 35.8151 1.2728 35.9732C1.87212 36.7474 2.66462 37.27 3.50907 37.7268C3.90776 37.9428 4.30972 38.1595 4.71601 38.363C5.7489 38.8826 6.69395 39.5612 7.51674 40.374C8.06296 40.911 8.61323 41.4446 9.19203 41.9462C9.57602 42.2781 10.0034 42.5645 10.4324 42.8383C10.6215 42.9586 10.8579 43.0256 11.0818 43.0671C12.3931 43.3096 13.707 43.2963 15.0262 43.1309C15.6538 43.0523 16.2834 42.9949 16.9136 42.9441C17.7057 42.8798 18.4567 42.6384 19.2123 42.4203C21.4849 41.7644 23.7025 40.9306 25.8446 39.9264C28.1067 38.867 30.4091 37.895 32.7142 36.9316C33.9319 36.4225 35.1875 36.0027 36.4324 35.5616C37.2194 35.2832 38.0362 35.1192 38.8644 35.0138C38.9624 35.0011 39.0604 34.987 39.2028 34.9672ZM48.3376 37.7782C48.4068 37.6021 48.4698 37.483 48.5026 37.3565C48.5325 37.241 48.5571 37.1029 48.4233 37.0291C48.1127 36.8573 47.9059 36.581 47.6865 36.3169C47.4374 36.0165 47.1087 35.7928 46.7381 35.6715C45.476 35.244 44.1596 34.9985 42.8283 34.9423C42.4079 34.9275 41.9869 34.9499 41.5703 35.0093C41.3611 35.0355 41.1422 35.1374 40.9666 35.2605C40.7289 35.4287 40.7671 35.6147 41.0152 35.7767C41.1655 35.8749 41.3001 36.004 41.4745 36.1448C41.9463 36.0619 42.4332 36.1907 42.9077 36.4015C43.2511 36.554 43.5888 36.7353 43.9498 36.8355C44.6001 37.0158 45.2631 37.1527 45.9242 37.2929C46.7144 37.4603 47.508 37.6121 48.3376 37.7782Z" fill="#CBA382"/>
<path d="M44.4738 48.3717C44.7886 48.289 45.0269 48.4957 45.2616 48.7024C46.8556 50.1068 47.335 51.8517 46.8049 53.8861C46.548 54.8718 46.0675 55.7417 45.3166 56.4474C45.1947 56.5609 45.0659 56.6667 44.9309 56.764C44.8598 56.8165 44.7782 56.8528 44.6917 56.8703C44.4971 56.9049 44.3067 56.8661 44.172 56.7155C44.0311 56.5583 44.0872 56.3783 44.1841 56.2203C44.2998 56.0314 44.425 55.8475 44.5586 55.671C44.6694 55.5178 44.7936 55.3747 44.9298 55.2436C46.0304 54.2341 46.1756 51.8507 45.5742 50.6437C45.1372 49.7702 44.4722 49.1863 43.5591 48.8635C42.3546 48.4375 41.1102 48.35 39.8491 48.4324C37.733 48.5706 35.7205 49.1374 33.7709 49.947C32.1123 50.636 30.5462 51.4893 29.128 52.602C28.3908 53.1805 27.7519 53.86 27.1265 54.5537C26.5984 55.1397 26.0604 55.7162 25.5344 56.3039C25.4412 56.4078 25.3796 56.5422 25.3146 56.6684C25.2131 56.8645 25.1483 57.0861 25.0189 57.2607C24.756 57.6213 24.5706 58.0325 24.4744 58.4684C24.3502 59.0075 24.2774 59.5591 24.1922 60.1071C24.1545 60.3497 24.2013 60.5827 24.2635 60.8253C24.3335 61.0973 24.3193 61.3954 24.3131 61.6812C24.309 61.8326 24.3502 61.9817 24.4313 62.1096C24.5849 62.3745 24.7377 62.6625 24.792 62.9586C24.9478 63.8068 25.4058 64.4854 25.9764 65.0806C27.1402 66.2956 28.5458 67.2526 30.1022 67.8897C30.9187 68.2265 31.7875 68.426 32.6786 68.5136C33.9153 68.6349 35.1484 68.7937 36.3828 68.9367C36.7024 68.9738 37.0227 69.0074 37.3413 69.0511C37.606 69.0874 37.7148 69.2014 37.7302 69.4605C37.7347 69.5713 37.7221 69.6821 37.6926 69.789C37.625 70.0454 37.5322 70.1214 37.2657 70.1147C36.8111 70.103 36.3549 70.079 35.9024 70.0555C34.3385 69.9681 32.7894 69.7059 31.2838 69.2739C29.5941 68.7956 27.9976 68.1188 26.5991 67.0333C25.0042 65.7948 23.9666 64.1992 23.5411 62.2142C23.5149 62.0843 23.4715 61.9585 23.412 61.8401C23.2692 61.5684 23.2544 61.2911 23.3268 60.9992C23.3666 60.8397 23.3915 60.6762 23.4255 60.5063C23.3532 60.4769 23.3046 60.4549 23.2539 60.4379C23.0998 60.3843 23.0617 60.2759 23.0893 60.1228C23.1738 59.6529 23.244 59.1805 23.3377 58.7125C23.3922 58.4405 23.4671 58.1729 23.5619 57.9122C23.6175 57.7599 23.7013 57.5892 23.8248 57.4971C24.0278 57.3461 24.1195 57.1477 24.2013 56.9292C24.5708 55.9329 25.2056 55.1025 25.8829 54.3044C26.9119 53.094 28.1246 52.0872 29.43 51.1909C31.4949 49.772 33.7104 48.66 36.1243 47.9683C37.498 47.5749 38.8958 47.3241 40.3289 47.4453C40.8106 47.4854 41.2948 47.4872 41.7768 47.4507C42.6262 47.3886 43.4212 47.6574 44.186 48.0012C44.2929 48.0499 44.3519 48.2101 44.4738 48.3717Z" fill="#CBA382"/>
<path d="M35.5722 21.3156C35.3271 21.2852 35.0741 21.2563 34.8241 21.2229C34.2477 21.146 33.691 21.0127 33.2008 20.6715C33.1241 20.618 33.018 20.5964 32.9223 20.5817C31.9339 20.4414 30.945 20.305 29.9555 20.1724C29.8747 20.1617 29.786 20.1888 29.7039 20.2102C29.4595 20.2742 29.22 20.3856 28.9732 20.4042C27.3125 20.5367 25.6494 20.5805 23.9872 20.427C20.7028 20.123 17.7543 19.013 15.256 16.8022C14.2906 15.9478 13.584 14.9437 13.2454 13.6875C13.1012 13.1514 12.9159 12.6269 12.7519 12.0963C12.5823 11.5543 12.3177 11.0468 11.9706 10.5977C11.7906 10.3583 11.6327 10.103 11.4988 9.83497C11.3721 9.58492 11.3318 9.31099 11.4528 9.0309C11.7302 8.99012 11.9666 9.09498 12.1949 9.20265C12.4056 9.30207 12.6076 9.41915 12.7986 9.55265C13.5591 10.0838 14.4137 10.2744 15.3221 10.2405C15.9424 10.2173 16.5605 10.1355 17.1807 10.1126C18.4021 10.0675 19.5918 10.2785 20.755 10.6326C22.4568 11.1513 24.0626 11.9443 25.5093 12.9804C26.564 13.7318 27.5152 14.5929 28.3156 15.6158C28.3735 15.6971 28.4419 15.7704 28.5191 15.8336C29.4043 16.484 30.1214 17.3016 30.8096 18.1468C30.9772 18.3504 31.1885 18.5137 31.4279 18.6243C32.5638 19.1789 33.6869 19.7599 34.8184 20.3245C34.999 20.4085 35.1864 20.4769 35.3786 20.5289C37.1222 21.0483 38.867 21.5659 40.6102 22.0872C40.7514 22.1294 40.9404 22.1193 40.992 22.3063C41.0568 22.5429 41.1088 22.7875 40.9892 23.023C40.8964 23.2062 40.7183 23.2622 40.5097 23.1938C39.1908 22.7627 37.8728 22.3327 36.5555 21.904C36.3651 21.8442 36.1706 21.7981 35.9736 21.766C35.6139 21.7052 35.6131 21.7108 35.5722 21.3156ZM13.8815 11.2377C13.8524 11.351 13.8193 11.455 13.7993 11.5616C13.6537 12.3263 13.8259 13.0399 14.1576 13.7245C14.4604 14.3495 14.8773 14.896 15.3472 15.403C16.8392 17.0127 18.6751 18.0734 20.7325 18.7765C22.1082 19.2514 23.541 19.5408 24.9933 19.6369C26.5185 19.7343 28.0481 19.8306 29.5451 19.3801C29.7911 19.3061 29.872 19.2533 29.856 19.0022C29.8457 18.8415 29.8072 18.6619 29.7206 18.5326C29.5204 18.2283 29.3069 17.9262 29.0572 17.6624C28.4162 16.986 27.7644 16.3193 27.0962 15.6698C25.3195 13.9435 23.3241 12.5472 20.9998 11.6508C19.9534 11.2469 18.8813 10.9968 17.7547 11.0493C16.4693 11.1071 15.1866 11.1733 13.8815 11.2377ZM33.7111 20.5252C33.5752 20.5402 33.4905 20.5491 33.407 20.5634C33.4041 20.5628 33.3988 20.6403 33.415 20.6511C33.5074 20.7121 33.5969 20.7171 33.7121 20.5254L33.7111 20.5252Z" fill="#CBA382"/>
<path d="M24.9436 37.6385C24.9997 37.3175 25.2424 37.2126 25.4985 37.1206C26.1773 36.8763 26.855 36.628 27.5342 36.3852C27.6785 36.3337 27.8398 36.253 27.9715 36.39C28.1147 36.5388 28.0538 36.719 28.003 36.893C27.907 37.2213 27.677 37.4139 27.3716 37.5301C26.5411 37.8451 25.7104 38.1589 24.8794 38.4716C23.876 38.8493 22.8444 39.0948 21.7721 39.1664C21.1835 39.2068 20.6076 39.357 20.074 39.6092C19.3613 39.9431 18.6486 40.2848 17.9182 40.5793C16.91 40.9861 15.8862 41.357 14.7978 41.4972C13.7566 41.6311 12.7704 41.405 11.7992 41.0515C10.6902 40.6477 9.75629 39.9926 8.97619 39.111C8.8378 38.9532 8.68679 38.8025 8.55716 38.6366C7.63215 37.4516 6.48386 36.5446 5.14756 35.8668C3.99578 35.2828 2.99649 34.4941 2.13497 33.5369C1.81715 33.1836 1.55245 32.7824 1.26439 32.4026C1.05701 32.1293 0.844151 31.8596 0.647184 31.5802C0.494238 31.3644 0.340448 31.1443 0.225042 30.9091C0.137791 30.7303 0.206628 30.6141 0.3958 30.5471C0.678673 30.4468 0.950485 30.4832 1.16933 30.6959C1.29046 30.8102 1.39005 30.9455 1.46332 31.0952C1.70333 31.613 2.04666 32.063 2.35069 32.5412C2.57683 32.8969 2.86497 33.2089 3.20137 33.4625C3.76627 33.8926 4.31771 34.339 4.89687 34.7504C5.43206 35.133 6.04046 35.4008 6.68396 35.5369C7.11774 35.6312 7.56133 35.6727 8.0051 35.6605C9.18642 35.6166 10.3228 35.8462 11.4558 36.1303C13.7703 36.7104 16.0854 37.2885 18.401 37.8646C18.9395 37.9986 19.4816 38.1184 20.0206 38.2498C20.5191 38.3686 21.0367 38.3838 21.5414 38.2947C21.9571 38.2254 22.387 38.189 22.7801 38.0512C23.1538 37.9218 23.5533 37.9027 23.9162 37.734C24.2323 37.5866 24.5754 37.5607 24.9436 37.6385ZM13.5047 37.6837L13.5042 37.6863C12.0735 37.3303 10.6429 36.9746 9.2124 36.6192C8.86555 36.533 8.74635 36.5868 8.62421 36.8639C8.55254 37.0266 8.59829 37.1818 8.68329 37.3074C8.86849 37.5828 9.05664 37.8604 9.28443 38.098C10.025 38.87 10.8908 39.4917 11.7604 40.106C11.8519 40.1678 11.9565 40.2075 12.066 40.2219C12.7905 40.3163 13.5143 40.4371 14.2425 40.4811C15.6143 40.5639 16.9037 40.2468 18.1044 39.5681C18.2696 39.4746 18.3548 39.3565 18.3479 39.172C18.3402 38.9696 18.2 38.836 17.9296 38.7689C16.4546 38.4066 14.9797 38.0449 13.5047 37.6837Z" fill="#CBA382"/>
<path d="M23.5607 68.1272C23.2784 68.0278 22.9862 67.9543 22.7201 67.8265C21.2893 67.14 20.1493 66.1338 19.4206 64.7053C19.2451 64.3614 19.1351 63.9833 19.0007 63.619C18.8277 63.1503 18.6661 62.6775 18.4883 62.2106C18.4261 62.0477 18.3304 61.8975 18.2404 61.7235C18.1481 61.7602 18.0811 61.7978 18.0089 61.8133C17.4044 61.9462 17.2127 62.413 17.1472 62.9418C17.1013 63.3139 17.1323 63.6952 17.1221 64.0724C17.1169 64.2375 17.1157 64.4115 17.0656 64.5649C16.9517 64.9145 16.6482 64.9769 16.4 64.7039C16.1027 64.3771 15.9852 63.9775 15.9843 63.5392C15.9823 62.7715 16.2112 62.1004 16.7737 61.5527C16.9878 61.3444 17.1714 61.1047 17.3703 60.8804C17.4142 60.8313 17.4557 60.7613 17.5117 60.7446C17.8119 60.6495 17.9649 60.3966 18.1394 60.1705C18.6264 59.5398 19.0164 58.8605 19.1678 58.0654C19.189 57.9593 19.1971 57.851 19.2103 57.7512C19.0223 57.6373 18.901 57.6372 18.7515 57.7927C18.5853 57.9658 18.3766 58.105 18.1689 58.2303C16.3437 59.3285 14.3519 59.7527 12.2407 59.6751C12.02 59.667 11.8006 59.6248 11.5801 59.6109C11.495 59.6099 11.4108 59.6279 11.3336 59.6637C11.101 59.7624 10.8853 59.7342 10.7329 59.5393C10.635 59.4138 10.521 59.3838 10.3906 59.3815C10.1687 59.3776 9.83349 59.2553 9.66176 59.0994C9.41128 58.8699 9.442 58.6163 9.73974 58.457C10.0062 58.315 10.1837 58.3369 10.4306 58.5382C10.4724 58.5724 10.5202 58.6171 10.5694 58.6225C10.9414 58.663 11.2986 58.8094 11.6861 58.7518C11.9825 58.7078 12.2816 58.6858 12.5812 58.686C13.7848 58.6887 14.9371 58.4314 16.059 58.0154C16.5793 57.8223 17.0972 57.6229 17.6127 57.4173C18.3477 57.122 19.0383 56.7496 19.6718 56.2685C19.8833 56.1067 20.1157 55.9734 20.3294 55.8144C20.4496 55.7237 20.5499 55.6046 20.6634 55.5048C20.7714 55.4117 20.8813 55.2655 21.0011 55.2528C21.217 55.2306 21.294 55.0905 21.4013 54.9523C21.818 54.4006 22.3472 53.9439 22.9536 53.6126C23.1203 53.5255 23.2987 53.4632 23.4832 53.4276C23.6519 53.3933 23.818 53.4415 23.9188 53.6036C24.014 53.7565 23.9736 53.9104 23.8766 54.0401C23.7445 54.2179 23.6106 54.3994 23.4463 54.5442C23.1303 54.8213 22.7857 55.0689 22.4655 55.3435C22.2311 55.5447 21.9777 55.7421 21.8004 55.9895C21.2879 56.7001 20.7811 57.4193 20.3241 58.1649C19.6486 59.2683 19.4953 60.4992 19.5993 61.7642C19.7256 63.3046 20.3164 64.6457 21.4348 65.7244C21.7103 65.9903 22.052 66.1884 22.37 66.4087C22.715 66.648 23.0868 66.8525 23.4126 67.1151C23.6946 67.3418 23.7638 67.6702 23.6388 68.0227C23.6322 68.0421 23.6135 68.0575 23.5607 68.1272Z" fill="#CBA382"/>
<path d="M53.9457 8.00291C53.916 7.81178 53.9143 7.66437 53.8665 7.53464C53.7287 7.15983 53.5732 6.79204 53.4229 6.42221C53.3643 6.2784 53.2756 6.18506 53.1011 6.18382C52.9562 6.18238 52.8448 6.1056 52.8238 5.9472C52.8059 5.80064 52.908 5.71894 53.0202 5.66757C53.5065 5.44632 53.8229 5.44023 54.1413 5.79539C54.3252 6.00148 54.4838 6.22878 54.6139 6.47247C54.7273 6.68547 54.7949 6.92674 54.8595 7.16127C54.9485 7.48207 55.0291 7.80797 55.0921 8.13343C55.2561 8.98324 55.6092 9.72558 56.2228 10.3543C57.3629 11.5225 58.4647 12.7282 59.6065 13.8947C61.5177 15.8474 63.0713 18.056 64.3734 20.4511C64.5255 20.7307 64.6347 21.014 64.5933 21.3393C64.568 21.532 64.533 21.7238 64.3195 21.7951C64.106 21.8664 63.9254 21.7649 63.7747 21.6298C63.6945 21.5583 63.6376 21.455 63.5853 21.3581C63.453 21.114 63.319 20.87 63.204 20.6175C62.5581 19.1998 61.6276 17.964 60.706 16.7262C59.5078 15.1101 58.192 13.5849 56.7692 12.163C56.2981 11.6942 55.7754 11.2774 55.2724 10.8421C54.7695 10.4067 54.2487 9.98689 53.8978 9.40361C53.8537 9.34053 53.7915 9.29243 53.7193 9.26576C53.0629 9.00597 52.4928 8.60007 51.9102 8.21277C51.421 7.88674 50.9355 7.55429 50.4575 7.21143C50.3433 7.12813 50.2532 7.01614 50.1961 6.88677C50.1693 6.81423 50.1279 6.74799 50.0745 6.69214C50.021 6.6363 49.9567 6.59204 49.8855 6.5621C49.3258 6.31998 48.7654 6.07944 48.206 5.836C47.6553 5.59637 47.1193 5.33448 46.672 4.91609C46.5841 4.83381 46.4394 4.79087 46.3151 4.77314C45.6861 4.68642 45.0812 4.47263 44.5372 4.14476C44.3859 4.05238 44.2432 3.94645 44.111 3.82828C43.9376 3.67577 43.931 3.47632 44.0118 3.27635C44.0926 3.07639 44.2776 3.04909 44.4586 3.06388C44.6128 3.07994 44.7648 3.11356 44.9114 3.16409C45.0816 3.21549 45.2466 3.28272 45.4042 3.36491C46.4938 3.96403 47.6575 4.40402 48.7763 4.94023C49.6018 5.33565 50.3327 5.88063 51.0964 6.37398C51.777 6.81325 52.4623 7.24493 53.1478 7.67394C53.3002 7.76504 53.4588 7.84537 53.6225 7.91435C53.7094 7.95218 53.8054 7.96495 53.9457 8.00291Z" fill="#CBA382"/>
</svg>
