<svg width="97" height="30" viewBox="0 0 97 30" fill="none" xmlns="http://www.w3.org/2000/svg">
<g style="mix-blend-mode:luminosity">
<path d="M31.1351 0.0107422L30.755 0.0107422C29.7737 0.0560875 28.837 0.433413 28.0982 1.08088L18.0372 9.4685C15.5127 11.5716 12.5997 10.3899 13.6864 7.70008L15.6449 2.84932C16.2812 1.27922 15.5209 0.0107422 13.955 0.0107422L13.7153 0.0107422C12.1494 0.0107422 10.3644 1.27922 9.72812 2.84932L0.224923 26.3553C-0.411379 27.9212 0.348877 29.1938 1.91897 29.1938H2.15449C3.00113 29.1623 3.81819 28.8741 4.49723 28.3675C5.22477 27.8655 5.79728 27.1699 6.14996 26.3594C6.44346 25.6708 6.90007 25.0638 7.48041 24.591L10.3727 22.1821C12.0874 20.7484 14.2649 20.7484 14.8227 22.1821L17.1365 28.1237C17.285 28.4681 17.5381 28.7572 17.8599 28.95C18.1817 29.1428 18.5559 29.2295 18.9297 29.198H19.3429C21.6856 29.1112 24.0242 26.4173 23.3053 24.591L20.9006 18.4841L20.0742 16.4182C19.661 15.3811 20.2601 13.9143 21.4997 12.8773L23.9995 10.7907L31.3748 4.6136C33.5894 2.77907 33.4118 0.105774 31.1351 0.0107422Z" fill="#C42021"/>
<path d="M85.8575 0.00638612L85.2749 0.00638612C84.2103 0.0641224 83.2023 0.504288 82.4363 1.24593L71.7762 11.0053C69.983 12.658 67.5659 12.658 67.0948 11.0053L64.3141 1.24593C64.0951 0.477414 63.4051 0.00638612 62.4713 0.00638612L49.9684 0.00638612C48.3983 0.00638612 46.6134 1.27485 45.9771 2.84495L43.3905 9.25342C42.2915 11.9763 38.3621 13.1415 37.606 10.9722L34.1022 1.12611C33.9607 0.769908 33.7084 0.468702 33.3824 0.267046C33.0565 0.0653907 32.6743 -0.0260006 32.2924 0.00638612L31.1273 0.00638612C29.5778 0.0435726 27.8218 1.29551 27.2144 2.84081L24.0123 10.7657L20.901 18.4674L17.7401 26.3509C17.1204 27.8797 17.831 29.1316 19.3226 29.1853H19.6986C21.2687 29.1853 23.0537 27.9127 23.69 26.3468L26.26 19.9383C27.359 17.2154 31.2843 16.0544 32.0445 18.2195L35.5442 28.0697C35.6857 28.4259 35.938 28.7272 36.2639 28.9288C36.5899 29.1305 36.972 29.2219 37.3539 29.1895H50.3816C51.9517 29.1895 53.7366 27.9169 54.3688 26.3509L56.5215 21.025C57.6495 18.236 61.6987 17.1163 62.3556 19.4136L62.9134 21.3721C63.3803 23.0248 65.8057 23.0248 67.5906 21.3721L69.7268 19.4218C72.2348 17.1245 75.3833 18.2443 74.2718 21.0332L72.1233 26.355C71.487 27.921 72.2472 29.1936 73.8173 29.1936H74.09C75.656 29.1936 77.4451 27.921 78.0772 26.355L87.5804 2.84909C88.1837 1.27486 87.4234 0.00638612 85.8575 0.00638612ZM55.8604 6.61731L49.8982 21.3721C49.266 22.9422 47.481 24.2148 45.9109 24.2148H45.6837C44.1177 24.2148 43.3575 22.9422 43.9938 21.3721L49.9684 6.60904C50.6047 5.03894 52.3897 3.76634 53.9598 3.76634H54.1829C55.753 3.76634 56.4967 5.03894 55.8604 6.60904V6.61731Z" fill="#C42021"/>
<path d="M94.4475 0.0065918L94.179 0.0065918C92.6089 0.0065918 90.8239 1.27506 90.1917 2.84516L80.6885 26.3511C80.0564 27.9171 80.8125 29.1897 82.3826 29.1897H82.6553C84.2254 29.1897 86.0103 27.9171 86.6425 26.3511L96.1457 2.84516C96.7737 1.27506 96.0176 0.0065918 94.4475 0.0065918Z" fill="#C42021"/>
</g>
</svg>
