<svg width="54" height="48" viewBox="0 0 54 48" fill="none" xmlns="http://www.w3.org/2000/svg">
<g style="mix-blend-mode:luminosity">
<path d="M12.5791 47.3379C13.1453 44.1373 13.722 40.9 14.2882 37.6628C15.5534 30.4176 16.8177 23.1733 18.0811 15.9299C18.9619 10.8997 19.8374 5.86686 20.7574 0.841903C20.8151 0.529973 21.2529 0.0555244 21.5202 0.0555244C26.1179 0.00834171 30.7182 0.0214467 35.5938 0.0214467C34.7864 1.41072 34.1128 2.60601 33.405 3.78034C29.1874 10.7739 24.9436 17.7517 20.7732 24.7767C20.4114 25.3874 20.2017 26.4779 20.511 26.9969C20.8204 27.5159 21.8636 27.9169 22.5871 27.9195C25.19 27.9353 27.7929 27.7256 30.3958 27.6784C31.1721 27.6506 31.946 27.7798 32.6711 28.0585C33.7327 28.5067 34.2648 29.3219 33.8271 30.5801C31.9529 35.9852 30.118 41.4033 28.2307 46.8031C28.1206 47.1203 27.6697 47.5345 27.3761 47.5371C22.5478 47.5712 17.7194 47.5371 12.891 47.5371C12.8176 47.5187 12.7442 47.4375 12.5791 47.3379Z" fill="#A9A9A9"/>
<path d="M0 47.5554C0.786379 43.1255 1.54654 38.9525 2.28312 34.7742C3.37531 28.553 4.46226 22.331 5.54397 16.1082C6.4352 10.9941 7.3107 5.88523 8.23863 0.771143C8.30437 0.590339 8.4144 0.428902 8.55865 0.301599C8.70289 0.174297 8.87675 0.0851921 9.06432 0.0424326C12.0997 -0.00999267 15.1378 0.0109787 18.3908 0.0109787C18.0657 1.93499 17.7722 3.73841 17.4576 5.53922C16.0107 13.8084 14.562 22.0768 13.1116 30.3442C12.1496 35.8148 11.1928 41.2854 10.1915 46.7481C10.1364 47.0548 9.68556 47.5161 9.40508 47.5214C6.33559 47.5764 3.25561 47.5554 0 47.5554Z" fill="#A9A9A9"/>
<path d="M36.4959 0.0425598C40.1237 -0.0203506 43.7647 -0.182869 47.2903 1.09107C53.6416 3.36632 55.0151 9.30873 52.5878 15.2197C51.6678 17.4635 50.0347 19.1358 48.0268 20.4334C47.2142 20.9576 46.4541 21.4399 45.3164 20.803C44.5694 20.3862 43.4501 20.6116 42.496 20.5906C39.2875 20.5277 36.0739 20.5539 32.8681 20.4072C30.5273 20.3023 30.1629 19.6732 30.8445 17.4399C31.7278 14.5381 32.5928 11.6312 33.5312 8.74778C34.4697 5.86439 35.4867 2.9941 36.4959 0.0425598Z" fill="#A9A9A9"/>
<path d="M30.1704 47.663C31.9031 45.0129 33.426 42.7036 34.9254 40.3785C38.3854 35.0259 41.8586 29.6785 45.2584 24.2866C45.8036 23.4216 46.2361 23.419 47.0173 23.8384C50.4249 25.6732 52.0894 29.5344 51.6307 33.3955C50.6635 41.5555 43.7302 46.6722 35.9582 47.3196C34.1469 47.4586 32.3303 47.5372 30.1704 47.663Z" fill="#A9A9A9"/>
</g>
</svg>
