<svg width="95" height="37" viewBox="0 0 95 37" fill="none" xmlns="http://www.w3.org/2000/svg">
<g style="mix-blend-mode:luminosity">
<path d="M72.4596 11.6436C69.0609 11.6436 66.2427 13.4186 65.1432 16.4321C64.211 13.4238 61.8146 11.6436 58.9335 11.6436C56.7776 11.6436 55.1342 12.6401 54.2986 13.9881V6.95459H49.6914V11.8593H46.6422V8.19447H42.0343V11.8593H35.81V20.0238C35.81 22.0722 34.6776 23.2032 32.8997 23.2032C31.1751 23.2032 30.0164 22.0715 30.0164 20.0238V11.8586H25.4355V20.6423C25.4355 24.6572 27.7801 27.0559 31.2563 27.0559C33.2769 27.0559 34.894 26.1391 35.8108 24.8459V26.8936H40.4179V15.6849H42.0343V21.6665C42.0343 25.5733 44.2172 26.8936 47.3433 26.8936H54.2993V24.7918C55.1349 26.1121 56.7242 27.1085 58.9342 27.1085C61.7839 27.1085 64.184 25.3101 65.1293 22.3083C66.2054 25.3291 68.982 27.1085 72.407 27.1085C76.8255 27.1085 80.2747 24.1448 80.2747 19.3753C80.2739 14.6073 76.8789 11.6436 72.4596 11.6436ZM49.6907 22.9875H48.0422C47.0179 22.9875 46.6414 22.6103 46.6414 21.7213V15.6857H49.6907V22.9875ZM57.5591 23.0957C55.8345 23.0957 54.2723 21.7754 54.2723 19.3768C54.2723 16.9789 55.8345 15.6586 57.5591 15.6586C59.3107 15.6586 60.8738 16.9519 60.8738 19.3497C60.873 21.7476 59.31 23.0957 57.5591 23.0957ZM72.4062 23.122C70.7358 23.122 69.3336 21.9099 69.3336 19.3768C69.3336 16.8166 70.7884 15.6316 72.4596 15.6316C74.0767 15.6316 75.5856 16.8173 75.5856 19.3768C75.5849 21.9099 74.0489 23.122 72.4062 23.122Z" fill="#FF6237"/>
<path d="M86.3092 22.7178L83.8843 26.8944H78.8992L83.8572 19.2146L78.7646 11.8586H83.9384L86.8217 16.0081L89.2466 11.8586H94.2317L89.1925 19.4302L94.3662 26.8944H89.1925L86.3092 22.7178Z" fill="#FF6237"/>
<path d="M53.4696 33.132H50.473C50.4862 33.4054 50.5527 33.6393 50.6711 33.833C50.7903 34.0275 50.9467 34.1737 51.1405 34.2731C51.3342 34.3726 51.5462 34.4223 51.7758 34.4223C52.0755 34.4223 52.3277 34.3499 52.5331 34.2037C52.7378 34.0582 52.8738 33.8623 52.9396 33.6152H53.4294C53.341 33.9683 53.1523 34.2556 52.8636 34.4786C52.5748 34.7015 52.2122 34.8127 51.7758 34.8127C51.4358 34.8127 51.1317 34.7366 50.8627 34.5846C50.5936 34.4325 50.3831 34.2161 50.231 33.9361C50.079 33.6561 50.0029 33.3286 50.0029 32.9536C50.0029 32.5785 50.0775 32.2503 50.2281 31.9681C50.378 31.6859 50.5878 31.4695 50.8561 31.3197C51.1251 31.1698 51.4314 31.0945 51.7758 31.0945C52.1201 31.0945 52.4205 31.1698 52.6786 31.3197C52.9367 31.4695 53.1348 31.6713 53.2737 31.925C53.4126 32.1786 53.4821 32.4594 53.4821 32.7686C53.4828 32.9265 53.4784 33.0479 53.4696 33.132ZM52.8511 32.0668C52.7386 31.8774 52.5858 31.7342 52.3913 31.6369C52.1968 31.5397 51.9856 31.4914 51.756 31.4914C51.4117 31.4914 51.1185 31.6018 50.8765 31.8219C50.6338 32.0427 50.4993 32.3534 50.473 32.7547H53.0127C53.0178 32.4857 52.9637 32.2569 52.8511 32.0668Z" fill="#001727"/>
<path d="M57.1473 34.7594L56.2145 33.3046L55.3145 34.7594H54.8247L55.9886 32.9537L54.8379 31.1479H55.3606L56.2802 32.583L57.1736 31.1479H57.6561L56.5054 32.9339L57.6693 34.7594H57.1473Z" fill="#001727"/>
<path d="M60.2262 31.3357C60.4755 31.1749 60.7715 31.0945 61.1159 31.0945C61.4419 31.0945 61.7365 31.1705 61.999 31.3226C62.2614 31.4746 62.4661 31.691 62.6145 31.971C62.7622 32.251 62.8361 32.5763 62.8361 32.947C62.8361 33.3176 62.7622 33.6437 62.6145 33.9259C62.4669 34.2081 62.2614 34.4267 61.999 34.5809C61.7365 34.7352 61.4419 34.8127 61.1159 34.8127C60.7759 34.8127 60.4806 34.7322 60.2298 34.5714C59.9783 34.4106 59.7956 34.2088 59.6808 33.9661V36.4663H59.2246V31.1486H59.6808V31.9425C59.7956 31.6991 59.9769 31.4973 60.2262 31.3357ZM62.1905 32.1691C62.0736 31.9506 61.9142 31.7846 61.711 31.6698C61.5077 31.5551 61.2789 31.498 61.023 31.498C60.7759 31.498 60.55 31.5572 60.3453 31.6764C60.1406 31.7956 59.9783 31.9652 59.8592 32.186C59.74 32.4067 59.6808 32.6619 59.6808 32.9536C59.6808 33.2453 59.74 33.5004 59.8592 33.7212C59.9783 33.942 60.1406 34.1116 60.3453 34.2307C60.55 34.3499 60.7767 34.4091 61.023 34.4091C61.2789 34.4091 61.5077 34.3506 61.711 34.2337C61.9135 34.1167 62.0736 33.9471 62.1905 33.7241C62.3075 33.5011 62.366 33.2423 62.366 32.947C62.366 32.6465 62.3075 32.3877 62.1905 32.1691Z" fill="#001727"/>
<path d="M67.869 33.132H64.8724C64.8856 33.4054 64.9521 33.6393 65.0705 33.833C65.1897 34.0275 65.3461 34.1737 65.5399 34.2731C65.7336 34.3726 65.9456 34.4223 66.1752 34.4223C66.4749 34.4223 66.7271 34.3499 66.9326 34.2037C67.1372 34.0582 67.2732 33.8623 67.339 33.6152H67.8288C67.7404 33.9683 67.5518 34.2556 67.263 34.4786C66.9742 34.7015 66.6116 34.8127 66.1752 34.8127C65.8352 34.8127 65.5311 34.7366 65.2621 34.5846C64.993 34.4325 64.7825 34.2161 64.6304 33.9361C64.4784 33.6561 64.4023 33.3286 64.4023 32.9536C64.4023 32.5785 64.4769 32.2503 64.6275 31.9681C64.7774 31.6859 64.9872 31.4695 65.2555 31.3197C65.5245 31.1698 65.8308 31.0945 66.1752 31.0945C66.5195 31.0945 66.82 31.1698 67.078 31.3197C67.3361 31.4695 67.5342 31.6713 67.6731 31.925C67.812 32.1786 67.8815 32.4594 67.8815 32.7686C67.8822 32.9265 67.8778 33.0479 67.869 33.132ZM67.2506 32.0668C67.138 31.8774 66.9852 31.7342 66.7907 31.6369C66.5963 31.5397 66.385 31.4914 66.1554 31.4914C65.8111 31.4914 65.5179 31.6018 65.276 31.8219C65.0333 32.0427 64.8987 32.3534 64.8724 32.7547H67.4121C67.4165 32.4857 67.3624 32.2569 67.2506 32.0668Z" fill="#001727"/>
<path d="M70.5842 31.266C70.7933 31.1425 71.0506 31.0811 71.3547 31.0811V31.5636H71.229C70.8942 31.5636 70.6251 31.6542 70.4219 31.8348C70.2187 32.0154 70.1178 32.3173 70.1178 32.7413V34.759H69.6543V31.1476H70.1171V31.7895C70.2187 31.5636 70.3744 31.3896 70.5842 31.266Z" fill="#001727"/>
<path d="M72.9681 30.3668C72.9015 30.3003 72.8687 30.2192 72.8687 30.1219C72.8687 30.0247 72.9015 29.9443 72.9681 29.8807C73.0339 29.8171 73.1136 29.7849 73.2064 29.7849C73.2992 29.7849 73.3782 29.8171 73.4447 29.8807C73.5105 29.9443 73.5442 30.0254 73.5442 30.1219C73.5442 30.2192 73.5113 30.3003 73.4447 30.3668C73.3782 30.4326 73.2992 30.4663 73.2064 30.4663C73.1136 30.4663 73.0346 30.4326 72.9681 30.3668ZM73.4382 31.1476V34.7591H72.9754V31.1476H73.4382Z" fill="#001727"/>
<path d="M78.6698 33.132H75.6732C75.6864 33.4054 75.7529 33.6393 75.8713 33.833C75.9905 34.0275 76.1469 34.1737 76.3407 34.2731C76.5344 34.3726 76.7464 34.4223 76.9759 34.4223C77.2757 34.4223 77.5279 34.3499 77.7333 34.2037C77.938 34.0582 78.074 33.8623 78.1398 33.6152H78.6296C78.5412 33.9683 78.3525 34.2556 78.0638 34.4786C77.775 34.7015 77.4124 34.8127 76.9759 34.8127C76.636 34.8127 76.3319 34.7366 76.0629 34.5846C75.7938 34.4325 75.5833 34.2161 75.4312 33.9361C75.2792 33.6561 75.2031 33.3286 75.2031 32.9536C75.2031 32.5785 75.2777 32.2503 75.4283 31.9681C75.5782 31.6859 75.788 31.4695 76.0563 31.3197C76.3253 31.1698 76.6316 31.0945 76.9759 31.0945C77.3203 31.0945 77.6207 31.1698 77.8788 31.3197C78.1369 31.4695 78.335 31.6713 78.4739 31.925C78.6128 32.1786 78.6822 32.4594 78.6822 32.7686C78.683 32.9265 78.6786 33.0479 78.6698 33.132ZM78.0513 32.0668C77.9388 31.8774 77.786 31.7342 77.5915 31.6369C77.397 31.5397 77.1858 31.4914 76.9562 31.4914C76.6119 31.4914 76.3187 31.6018 76.0767 31.8219C75.834 32.0427 75.6995 32.3534 75.6732 32.7547H78.2129C78.218 32.4857 78.1639 32.2569 78.0513 32.0668Z" fill="#001727"/>
<path d="M83.2075 31.4812C83.4809 31.748 83.6177 32.1348 83.6177 32.6421V34.7585H83.1615V32.6948C83.1615 32.3022 83.0635 32.0024 82.8669 31.7955C82.6702 31.5879 82.4026 31.4848 82.0634 31.4848C81.7147 31.4848 81.4369 31.5952 81.23 31.8153C81.0224 32.0361 80.9193 32.3599 80.9193 32.7876V34.7585H80.4565V31.1471H80.9193V31.7619C81.0341 31.5419 81.1993 31.373 81.4157 31.256C81.6314 31.1391 81.8763 31.0806 82.1497 31.0806C82.581 31.0813 82.9341 31.2151 83.2075 31.4812Z" fill="#001727"/>
<path d="M85.5819 31.971C85.7317 31.691 85.9386 31.4746 86.2033 31.3226C86.4679 31.1705 86.7698 31.0945 87.1098 31.0945C87.555 31.0945 87.922 31.2049 88.2107 31.4249C88.4995 31.6457 88.6859 31.9454 88.7693 32.3241H88.2729C88.2108 32.0639 88.0777 31.8599 87.873 31.7122C87.6683 31.5646 87.4132 31.4907 87.109 31.4907C86.8663 31.4907 86.6485 31.5455 86.454 31.6559C86.2603 31.7663 86.1068 31.9308 85.9942 32.1487C85.8816 32.3673 85.8253 32.6348 85.8253 32.9521C85.8253 33.2694 85.8816 33.5384 85.9942 33.7592C86.1068 33.98 86.2596 34.1452 86.454 34.2556C86.6477 34.366 86.8663 34.4208 87.109 34.4208C87.4132 34.4208 87.6676 34.347 87.873 34.1993C88.0784 34.0516 88.2115 33.8455 88.2729 33.5808H88.7693C88.6852 33.9515 88.4981 34.249 88.2071 34.4735C87.9161 34.6986 87.5499 34.8105 87.109 34.8105C86.7691 34.8105 86.4672 34.7344 86.2025 34.5824C85.9379 34.4303 85.731 34.2139 85.5811 33.9339C85.4313 33.6539 85.356 33.3264 85.356 32.9514C85.3567 32.5785 85.432 32.251 85.5819 31.971Z" fill="#001727"/>
<path d="M93.8036 33.132H90.807C90.8201 33.4054 90.8867 33.6393 91.0051 33.833C91.1243 34.0275 91.2807 34.1737 91.4744 34.2731C91.6682 34.3726 91.8802 34.4223 92.1097 34.4223C92.4095 34.4223 92.6617 34.3499 92.8671 34.2037C93.0718 34.0582 93.2078 33.8623 93.2736 33.6152H93.7634C93.6749 33.9683 93.4863 34.2556 93.1976 34.4786C92.9088 34.7015 92.5462 34.8127 92.1097 34.8127C91.7698 34.8127 91.4657 34.7366 91.1966 34.5846C90.9276 34.4325 90.7171 34.2161 90.565 33.9361C90.4129 33.6561 90.3369 33.3286 90.3369 32.9536C90.3369 32.5785 90.4115 32.2503 90.5621 31.9681C90.7119 31.6859 90.9218 31.4695 91.1901 31.3197C91.4591 31.1698 91.7654 31.0945 92.1097 31.0945C92.4541 31.0945 92.7545 31.1698 93.0126 31.3197C93.2707 31.4695 93.4688 31.6713 93.6077 31.925C93.7466 32.1786 93.816 32.4594 93.816 32.7686C93.8168 32.9265 93.8124 33.0479 93.8036 33.132ZM93.1851 32.0668C93.0725 31.8774 92.9197 31.7342 92.7253 31.6369C92.5308 31.5397 92.3196 31.4914 92.09 31.4914C91.7457 31.4914 91.4525 31.6018 91.2105 31.8219C90.9678 32.0427 90.8333 32.3534 90.807 32.7547H93.3467C93.3518 32.4857 93.2977 32.2569 93.1851 32.0668Z" fill="#001727"/>
<path d="M21.2469 17.2859C21.2469 20.9544 19.7314 23.6549 17.1091 24.1484C13.9868 24.7354 11.7212 22.032 11.7212 17.2808C11.7212 12.4521 13.986 9.82762 17.1091 10.419C19.7314 10.914 21.2469 13.5568 21.2469 17.2859Z" fill="#FF6237"/>
<path d="M4.96171 17.2773C4.96171 26.7474 11.2861 31.3334 17.1105 29.3975C19.9317 28.4596 22.1102 26.0946 23.3143 23.0249V25.5353C23.3143 28.3821 21.5466 30.8429 19.0727 31.4372L6.48159 34.4623C3.1443 35.2636 0 32.4 0 28.5605V6.03647C0 2.19694 3.1443 -0.666626 6.48159 0.135348L19.0727 3.16048C21.5466 3.75483 23.3143 6.21485 23.3143 9.06161V11.545C22.1131 8.49065 19.9397 6.14248 17.1105 5.20307C11.2861 3.26649 4.96171 7.80711 4.96171 17.2773Z" fill="#FF6237"/>
</g>
</svg>
