<svg width="100" height="100" viewBox="0 0 100 100" fill="none" xmlns="http://www.w3.org/2000/svg">
<path fill-rule="evenodd" clip-rule="evenodd" d="M30.2832 19.4083C43.4043 18.2688 56.5995 18.2688 69.7206 19.4083L76.0123 19.9583C78.9369 20.2144 81.6903 21.4467 83.8298 23.457C85.9693 25.4673 87.3706 28.1387 87.8081 31.0417C89.698 43.6099 89.698 56.3901 87.8081 68.9583C87.6387 70.0611 87.3443 71.1083 86.9248 72.1C86.6498 72.7542 85.7998 72.8541 85.3165 72.3292L66.8957 52.0625C66.4883 51.6145 65.9595 51.2944 65.3737 51.1413C64.7878 50.9882 64.1701 51.0086 63.5956 51.2L53.0498 54.7167L37.754 37.5083C37.4711 37.19 37.126 36.9328 36.7401 36.7527C36.3542 36.5725 35.9356 36.4732 35.5098 36.4607C35.0841 36.4482 34.6604 36.5229 34.2646 36.6801C33.8687 36.8373 33.5093 37.0738 33.2082 37.375L12.7332 57.85C12.5941 57.993 12.4163 58.0922 12.2216 58.1357C12.0269 58.1791 11.8238 58.1647 11.6371 58.0944C11.4504 58.0241 11.2883 57.9008 11.1707 57.7397C11.0531 57.5786 10.985 57.3867 10.9748 57.1875C10.4821 48.4522 10.8898 39.6893 12.1915 31.0375C12.6291 28.1345 14.0303 25.4631 16.1698 23.4528C18.3093 21.4425 21.0628 20.2103 23.9873 19.9542L30.2832 19.4083ZM58.3332 37.5C58.3332 35.8424 58.9916 34.2527 60.1637 33.0806C61.3358 31.9085 62.9255 31.25 64.5831 31.25C66.2408 31.25 67.8305 31.9085 69.0026 33.0806C70.1747 34.2527 70.8331 35.8424 70.8331 37.5C70.8331 39.1576 70.1747 40.7473 69.0026 41.9194C67.8305 43.0915 66.2408 43.75 64.5831 43.75C62.9255 43.75 61.3358 43.0915 60.1637 41.9194C58.9916 40.7473 58.3332 39.1576 58.3332 37.5Z" fill="#222222"/>
<path d="M12.3375 67.0835C12.225 67.1972 12.1402 67.3353 12.0896 67.487C12.039 67.6387 12.0241 67.8001 12.0459 67.9585L12.1917 68.9585C12.6293 71.8615 14.0305 74.5329 16.17 76.5432C18.3095 78.5535 21.063 79.7858 23.9875 80.0419L30.2792 80.5877C43.4042 81.7294 56.5959 81.7294 69.7209 80.5877L76.0125 80.0419C77.7387 79.8959 79.4178 79.4042 80.95 78.596C81.5209 78.3002 81.6167 77.546 81.1834 77.071L64.1 58.2794C63.9644 58.1285 63.7876 58.0205 63.5915 57.9687C63.3953 57.9169 63.1883 57.9235 62.9959 57.9877L53.0709 61.296C52.4906 61.4898 51.8663 61.509 51.2752 61.3512C50.6841 61.1935 50.1524 60.8657 49.7459 60.4085L36.0167 44.9627C35.9222 44.8566 35.807 44.7709 35.6781 44.7109C35.5492 44.651 35.4094 44.6181 35.2674 44.6142C35.1253 44.6103 34.9839 44.6355 34.852 44.6882C34.72 44.741 34.6002 44.8202 34.5 44.921L12.3375 67.0835Z" fill="#222222"/>
</svg>
