<svg width="351" height="67" viewBox="0 0 351 67" fill="none" xmlns="http://www.w3.org/2000/svg">
<path d="M96.2037 0V66.5389H82.5981V0H96.2037ZM118.048 40.5544H83.5198V27.4238H118.048V40.5544ZM122.16 13.4709H83.8743V0H122.16V13.4709Z" fill="#FF4100"/>
<path d="M170.96 66.5389H131.483V0H170.96V13.4709H141.31L145.088 9.69902V26.5234H168.031V39.2853H145.088V56.8257L141.31 53.0468H170.96V66.5389Z" fill="#FF4100"/>
<path d="M253.529 66.5389H239.923V0H263.944C271.507 0 277.346 1.8741 281.463 5.62231C285.58 9.37052 287.639 14.6903 287.639 21.5817C287.743 25.4183 286.859 29.2173 285.072 32.6137C283.236 35.7921 280.53 38.3799 277.273 40.0723L288.192 66.5106H273.303L264.029 43.2485H253.529V66.5389ZM253.529 12.9462V30.4867H263.866C266.83 30.4867 269.139 29.7068 270.793 28.147C272.447 26.5872 273.274 24.4012 273.274 21.5888C273.274 18.7528 272.476 16.6093 270.878 15.1583C269.28 13.7072 266.969 12.9722 263.944 12.9533L253.529 12.9462Z" fill="#FF4100"/>
<path d="M41.6675 65.8158V0.708984H63.5115V65.8158H41.6675ZM6.60781 0.708984H62.0298V21.7944H6.60781V0.708984ZM0 44.1631H61.4838V65.8158H0V44.1631Z" fill="#FF4100"/>
<path d="M195.746 66.5389H182.133V0H206.161C213.724 0 219.561 1.8741 223.673 5.62231C227.785 9.37052 229.844 14.6903 229.848 21.5817C229.953 25.4183 229.069 29.2173 227.282 32.6137C225.446 35.7921 222.74 38.3799 219.483 40.0723L230.423 66.5389H215.534L206.239 43.2485H195.746V66.5389ZM195.746 12.9462V30.4867H206.076C209.04 30.4867 211.348 29.7068 213.003 28.147C214.657 26.5872 215.484 24.4012 215.484 21.5888C215.484 18.7528 214.685 16.6093 213.088 15.1583C211.49 13.7072 209.181 12.9722 206.161 12.9533L195.746 12.9462Z" fill="#FF4100"/>
<path d="M311.155 66.5389H297.685V0H311.155L341.564 49.0906H337.36V0H350.831V66.5389H337.36L306.951 17.5334H311.155V66.5389Z" fill="#FF4100"/>
</svg>
