<svg width="44" height="45" viewBox="0 0 44 45" fill="none" xmlns="http://www.w3.org/2000/svg">
<path d="M36.9053 7.09467C34.2653 3.97801 28.6003 1.83301 22.0003 1.83301C15.4003 1.83301 9.73533 3.97801 7.09533 7.09467L3.66699 3.66634V12.833H12.8337L9.03866 9.03801C10.872 6.67301 15.822 4.58301 22.0003 4.58301C28.1787 4.58301 33.1287 6.67301 34.962 9.03801L31.167 12.833H40.3337V3.66634L36.9053 7.09467Z" fill="#DCDCDC"/>
<path d="M23.833 22.917V11.917C23.833 10.3953 22.6047 9.16699 21.083 9.16699C19.5613 9.16699 18.333 10.3953 18.333 11.917V31.607L10.9263 30.0487L8.70801 32.3037L18.5713 42.167H35.0163L37.0147 28.1603L25.813 22.917H23.833Z" fill="#DCDCDC"/>
</svg>
